<?xml version="1.0" encoding="UTF-8"?>
<!--Generator: Apple Native CoreSVG 175.5-->
<!DOCTYPE svg
PUBLIC "-//W3C//DTD SVG 1.1//EN"
       "http://www.w3.org/Graphics/SVG/1.1/DTD/svg11.dtd">
<svg version="1.1" xmlns="http://www.w3.org/2000/svg" xmlns:xlink="http://www.w3.org/1999/xlink" width="3300" height="2200">
 <!--glyph: "uni1012F8.medium", point size: 100.0, font version: "18.0d11e1", template writer version: "90"-->
 <g id="Notes">
  <rect height="2200" id="artboard" style="fill:white;opacity:1" width="3300" x="0" y="0"/>
  <line style="fill:none;stroke:black;opacity:1;stroke-width:0.5;" x1="263" x2="3036" y1="292" y2="292"/>
  <text style="stroke:none;fill:black;font-family:sans-serif;font-size:13;font-weight:bold;" transform="matrix(1 0 0 1 263 322)">Weight/Scale Variations</text>
  <text style="stroke:none;fill:black;font-family:sans-serif;font-size:13;text-anchor:middle;" transform="matrix(1 0 0 1 559.711 322)">Ultralight</text>
  <text style="stroke:none;fill:black;font-family:sans-serif;font-size:13;text-anchor:middle;" transform="matrix(1 0 0 1 856.422 322)">Thin</text>
  <text style="stroke:none;fill:black;font-family:sans-serif;font-size:13;text-anchor:middle;" transform="matrix(1 0 0 1 1153.13 322)">Light</text>
  <text style="stroke:none;fill:black;font-family:sans-serif;font-size:13;text-anchor:middle;" transform="matrix(1 0 0 1 1449.84 322)">Regular</text>
  <text style="stroke:none;fill:black;font-family:sans-serif;font-size:13;text-anchor:middle;" transform="matrix(1 0 0 1 1746.56 322)">Medium</text>
  <text style="stroke:none;fill:black;font-family:sans-serif;font-size:13;text-anchor:middle;" transform="matrix(1 0 0 1 2043.27 322)">Semibold</text>
  <text style="stroke:none;fill:black;font-family:sans-serif;font-size:13;text-anchor:middle;" transform="matrix(1 0 0 1 2339.98 322)">Bold</text>
  <text style="stroke:none;fill:black;font-family:sans-serif;font-size:13;text-anchor:middle;" transform="matrix(1 0 0 1 2636.69 322)">Heavy</text>
  <text style="stroke:none;fill:black;font-family:sans-serif;font-size:13;text-anchor:middle;" transform="matrix(1 0 0 1 2933.4 322)">Black</text>
  <line style="fill:none;stroke:black;opacity:1;stroke-width:0.5;" x1="263" x2="3036" y1="1903" y2="1903"/>
  <g transform="matrix(1 0 0 1 263 1933)">
   <path d="M9.24805 0.830078C13.5547 0.830078 17.1387-2.74414 17.1387-7.05078C17.1387-11.3574 13.5449-14.9316 9.23828-14.9316C4.94141-14.9316 1.36719-11.3574 1.36719-7.05078C1.36719-2.74414 4.95117 0.830078 9.24805 0.830078ZM9.24805-0.654297C5.70312-0.654297 2.87109-3.49609 2.87109-7.05078C2.87109-10.6055 5.69336-13.4473 9.23828-13.4473C12.793-13.4473 15.6445-10.6055 15.6445-7.05078C15.6445-3.49609 12.8027-0.654297 9.24805-0.654297ZM5.6543-7.05078C5.6543-6.62109 5.95703-6.32812 6.40625-6.32812L8.50586-6.32812L8.50586-4.20898C8.50586-3.76953 8.79883-3.4668 9.22852-3.4668C9.67773-3.4668 9.9707-3.76953 9.9707-4.20898L9.9707-6.32812L12.0898-6.32812C12.5293-6.32812 12.832-6.62109 12.832-7.05078C12.832-7.49023 12.5293-7.79297 12.0898-7.79297L9.9707-7.79297L9.9707-9.90234C9.9707-10.3516 9.67773-10.6543 9.22852-10.6543C8.79883-10.6543 8.50586-10.3516 8.50586-9.90234L8.50586-7.79297L6.40625-7.79297C5.95703-7.79297 5.6543-7.49023 5.6543-7.05078Z"/>
  </g>
  <g transform="matrix(1 0 0 1 281.867 1933)">
   <path d="M11.709 2.91016C17.1582 2.91016 21.6699-1.61133 21.6699-7.05078C21.6699-12.5 17.1484-17.0117 11.6992-17.0117C6.25977-17.0117 1.74805-12.5 1.74805-7.05078C1.74805-1.61133 6.26953 2.91016 11.709 2.91016ZM11.709 1.25C7.09961 1.25 3.41797-2.44141 3.41797-7.05078C3.41797-11.6602 7.08984-15.3516 11.6992-15.3516C16.3086-15.3516 20.0098-11.6602 20.0098-7.05078C20.0098-2.44141 16.3184 1.25 11.709 1.25ZM7.17773-7.05078C7.17773-6.57227 7.50977-6.25 8.00781-6.25L10.8789-6.25L10.8789-3.36914C10.8789-2.88086 11.2109-2.53906 11.6895-2.53906C12.1777-2.53906 12.5195-2.87109 12.5195-3.36914L12.5195-6.25L15.4004-6.25C15.8887-6.25 16.2305-6.57227 16.2305-7.05078C16.2305-7.53906 15.8887-7.88086 15.4004-7.88086L12.5195-7.88086L12.5195-10.752C12.5195-11.25 12.1777-11.5918 11.6895-11.5918C11.2109-11.5918 10.8789-11.25 10.8789-10.752L10.8789-7.88086L8.00781-7.88086C7.50977-7.88086 7.17773-7.53906 7.17773-7.05078Z"/>
  </g>
  <g transform="matrix(1 0 0 1 305.646 1933)">
   <path d="M14.9707 5.66406C21.9336 5.66406 27.6953-0.0976562 27.6953-7.05078C27.6953-14.0137 21.9238-19.7754 14.9609-19.7754C8.00781-19.7754 2.25586-14.0137 2.25586-7.05078C2.25586-0.0976562 8.01758 5.66406 14.9707 5.66406ZM14.9707 3.84766C8.93555 3.84766 4.08203-1.01562 4.08203-7.05078C4.08203-13.0957 8.92578-17.9492 14.9609-17.9492C21.0059-17.9492 25.8691-13.0957 25.8691-7.05078C25.8691-1.01562 21.0156 3.84766 14.9707 3.84766ZM9.19922-7.05078C9.19922-6.5332 9.57031-6.17188 10.1172-6.17188L14.0625-6.17188L14.0625-2.2168C14.0625-1.67969 14.4336-1.29883 14.9512-1.29883C15.4883-1.29883 15.8594-1.66992 15.8594-2.2168L15.8594-6.17188L19.8145-6.17188C20.3516-6.17188 20.7324-6.5332 20.7324-7.05078C20.7324-7.59766 20.3613-7.96875 19.8145-7.96875L15.8594-7.96875L15.8594-11.9141C15.8594-12.4609 15.4883-12.8418 14.9512-12.8418C14.4336-12.8418 14.0625-12.4609 14.0625-11.9141L14.0625-7.96875L10.1172-7.96875C9.57031-7.96875 9.19922-7.59766 9.19922-7.05078Z"/>
  </g>
  <text style="stroke:none;fill:black;font-family:sans-serif;font-size:13;font-weight:bold;" transform="matrix(1 0 0 1 263 1953)">Design Variations</text>
  <text style="stroke:none;fill:black;font-family:sans-serif;font-size:13;" transform="matrix(1 0 0 1 263 1971)">Symbols are supported in up to nine weights and three scales.</text>
  <text style="stroke:none;fill:black;font-family:sans-serif;font-size:13;" transform="matrix(1 0 0 1 263 1989)">For optimal layout with text and other symbols, vertically align</text>
  <text style="stroke:none;fill:black;font-family:sans-serif;font-size:13;" transform="matrix(1 0 0 1 263 2007)">symbols with the adjacent text.</text>
  <line style="fill:none;stroke:#00AEEF;stroke-width:0.5;opacity:1.0;" x1="776" x2="776" y1="1919" y2="1933"/>
  <g transform="matrix(1 0 0 1 776 1933)">
   <path d="M3.31055 0.15625C3.82812 0.15625 4.08203-0.0390625 4.26758-0.585938L5.52734-4.0332L11.2891-4.0332L12.5488-0.585938C12.7344-0.0390625 12.9883 0.15625 13.4961 0.15625C14.0137 0.15625 14.3457-0.15625 14.3457-0.644531C14.3457-0.810547 14.3164-0.966797 14.2383-1.17188L9.6582-13.3691C9.43359-13.9648 9.0332-14.2676 8.4082-14.2676C7.80273-14.2676 7.39258-13.9746 7.17773-13.3789L2.59766-1.16211C2.51953-0.957031 2.49023-0.800781 2.49023-0.634766C2.49023-0.146484 2.80273 0.15625 3.31055 0.15625ZM6.00586-5.51758L8.37891-12.0898L8.42773-12.0898L10.8008-5.51758Z"/>
  </g>
  <line style="fill:none;stroke:#00AEEF;stroke-width:0.5;opacity:1.0;" x1="793.197" x2="793.197" y1="1919" y2="1933"/>
  <text style="stroke:none;fill:black;font-family:sans-serif;font-size:13;font-weight:bold;" transform="matrix(1 0 0 1 776 1953)">Margins</text>
  <text style="stroke:none;fill:black;font-family:sans-serif;font-size:13;" transform="matrix(1 0 0 1 776 1971)">Leading and trailing margins on the left and right side of each symbol</text>
  <text style="stroke:none;fill:black;font-family:sans-serif;font-size:13;" transform="matrix(1 0 0 1 776 1989)">can be adjusted by modifying the x-location of the margin guidelines.</text>
  <text style="stroke:none;fill:black;font-family:sans-serif;font-size:13;" transform="matrix(1 0 0 1 776 2007)">Modifications are automatically applied proportionally to all</text>
  <text style="stroke:none;fill:black;font-family:sans-serif;font-size:13;" transform="matrix(1 0 0 1 776 2025)">scales and weights.</text>
  <g transform="matrix(1 0 0 1 1289 1933)">
   <path d="M2.8418 1.86523L4.54102 3.57422C5.40039 4.44336 6.38672 4.38477 7.31445 3.35938L18.0078-8.42773L17.041-9.4043L6.42578 2.27539C6.07422 2.67578 5.74219 2.77344 5.27344 2.30469L4.10156 1.14258C3.63281 0.683594 3.74023 0.341797 4.14062-0.0195312L15.6152-10.8203L14.6387-11.7871L3.04688-0.898438C2.06055 0.0195312 1.98242 0.996094 2.8418 1.86523ZM9.25781-16.3281C8.83789-15.918 8.80859-15.3418 9.04297-14.9512C9.27734-14.5898 9.73633-14.3555 10.3809-14.5215C11.8457-14.8633 13.3691-14.9219 14.7949-13.9844L14.209-12.5293C13.8672-11.6992 14.043-11.1133 14.5801-10.5664L16.875-8.25195C17.3633-7.76367 17.7734-7.74414 18.3398-7.8418L19.4043-8.03711L20.0684-7.36328L20.0293-6.80664C19.9902-6.30859 20.1172-5.92773 20.6055-5.44922L21.3672-4.70703C21.8457-4.22852 22.4609-4.19922 22.9297-4.66797L25.8398-7.58789C26.3086-8.05664 26.2891-8.65234 25.8105-9.13086L25.0391-9.89258C24.5605-10.3711 24.1895-10.5273 23.7109-10.4883L23.1348-10.4395L22.4902-11.0742L22.7344-12.1973C22.8613-12.7637 22.7051-13.2031 22.1191-13.7891L19.9219-15.9766C16.582-19.2969 12.1484-19.2188 9.25781-16.3281ZM10.752-15.957C13.1836-17.7344 16.4746-17.4316 18.7012-15.2051L21.1328-12.793C21.3672-12.5586 21.4062-12.373 21.3379-12.0312L21.0156-10.5469L22.5195-9.0625L23.5059-9.12109C23.7598-9.13086 23.8379-9.11133 24.0332-8.91602L24.6094-8.33984L22.168-5.89844L21.5918-6.47461C21.3965-6.66992 21.3672-6.74805 21.377-7.01172L21.4453-7.98828L19.9512-9.47266L18.4277-9.21875C18.1055-9.15039 17.959-9.17969 17.7148-9.41406L15.7129-11.416C15.459-11.6504 15.4297-11.8164 15.5859-12.1875L16.4648-14.2773C14.9023-15.7324 12.8711-16.3574 10.8398-15.7617C10.6836-15.7227 10.625-15.8496 10.752-15.957Z"/>
  </g>
  <text style="stroke:none;fill:black;font-family:sans-serif;font-size:13;font-weight:bold;" transform="matrix(1 0 0 1 1289 1953)">Exporting</text>
  <text style="stroke:none;fill:black;font-family:sans-serif;font-size:13;" transform="matrix(1 0 0 1 1289 1971)">Symbols should be outlined when exporting to ensure the</text>
  <text style="stroke:none;fill:black;font-family:sans-serif;font-size:13;" transform="matrix(1 0 0 1 1289 1989)">design is preserved when submitting to Xcode.</text>
  <text id="template-version" style="stroke:none;fill:black;font-family:sans-serif;font-size:13;text-anchor:end;" transform="matrix(1 0 0 1 3036 1933)">Template v.2.0</text>
  <text style="stroke:none;fill:black;font-family:sans-serif;font-size:13;text-anchor:end;" transform="matrix(1 0 0 1 3036 1951)">Requires Xcode 12 or greater</text>
  <text id="descriptive-name" style="stroke:none;fill:black;font-family:sans-serif;font-size:13;text-anchor:end;" transform="matrix(1 0 0 1 3036 1969)">Generated from beach.umbrella</text>
  <text style="stroke:none;fill:black;font-family:sans-serif;font-size:13;text-anchor:end;" transform="matrix(1 0 0 1 3036 1987)">Typeset at 100 points</text>
  <text style="stroke:none;fill:black;font-family:sans-serif;font-size:13;" transform="matrix(1 0 0 1 263 726)">Small</text>
  <text style="stroke:none;fill:black;font-family:sans-serif;font-size:13;" transform="matrix(1 0 0 1 263 1156)">Medium</text>
  <text style="stroke:none;fill:black;font-family:sans-serif;font-size:13;" transform="matrix(1 0 0 1 263 1586)">Large</text>
 </g>
 <g id="Guides">
  <g id="H-reference" style="fill:#27AAE1;stroke:none;" transform="matrix(1 0 0 1 339 696)">
   <path d="M0.993654 0L3.63775 0L29.3281-67.1323L30.0303-67.1323L30.0303-70.459L28.1226-70.459ZM11.6885-24.4799L46.9815-24.4799L46.2315-26.7285L12.4385-26.7285ZM55.1196 0L57.7637 0L30.6382-70.459L29.4326-70.459L29.4326-67.1323Z"/>
  </g>
  <line id="Baseline-S" style="fill:none;stroke:#27AAE1;opacity:1;stroke-width:0.5;" x1="263" x2="3036" y1="696" y2="696"/>
  <line id="Capline-S" style="fill:none;stroke:#27AAE1;opacity:1;stroke-width:0.5;" x1="263" x2="3036" y1="625.541" y2="625.541"/>
  <g id="H-reference" style="fill:#27AAE1;stroke:none;" transform="matrix(1 0 0 1 339 1126)">
   <path d="M0.993654 0L3.63775 0L29.3281-67.1323L30.0303-67.1323L30.0303-70.459L28.1226-70.459ZM11.6885-24.4799L46.9815-24.4799L46.2315-26.7285L12.4385-26.7285ZM55.1196 0L57.7637 0L30.6382-70.459L29.4326-70.459L29.4326-67.1323Z"/>
  </g>
  <line id="Baseline-M" style="fill:none;stroke:#27AAE1;opacity:1;stroke-width:0.5;" x1="263" x2="3036" y1="1126" y2="1126"/>
  <line id="Capline-M" style="fill:none;stroke:#27AAE1;opacity:1;stroke-width:0.5;" x1="263" x2="3036" y1="1055.54" y2="1055.54"/>
  <g id="H-reference" style="fill:#27AAE1;stroke:none;" transform="matrix(1 0 0 1 339 1556)">
   <path d="M0.993654 0L3.63775 0L29.3281-67.1323L30.0303-67.1323L30.0303-70.459L28.1226-70.459ZM11.6885-24.4799L46.9815-24.4799L46.2315-26.7285L12.4385-26.7285ZM55.1196 0L57.7637 0L30.6382-70.459L29.4326-70.459L29.4326-67.1323Z"/>
  </g>
  <line id="Baseline-L" style="fill:none;stroke:#27AAE1;opacity:1;stroke-width:0.5;" x1="263" x2="3036" y1="1556" y2="1556"/>
  <line id="Capline-L" style="fill:none;stroke:#27AAE1;opacity:1;stroke-width:0.5;" x1="263" x2="3036" y1="1485.54" y2="1485.54"/>
  <line id="left-margin" style="fill:none;stroke:#00AEEF;stroke-width:0.5;opacity:1.0;" x1="1389.36" x2="1389.36" y1="1030.79" y2="1150.12"/>
  <line id="right-margin" style="fill:none;stroke:#00AEEF;stroke-width:0.5;opacity:1.0;" x1="1510.33" x2="1510.33" y1="1030.79" y2="1150.12"/>
 </g>
 <g id="Symbols">
  <g id="Black-L" transform="matrix(1 0 0 1 2852.16 1556)">
   <path d="M15.0701-57.829C13.2293-52.8361 15.6831-47.8018 20.1473-46.1818C24.0165-44.7996 27.3332-45.6626 32.8857-47.9147C36.278-49.733 39.6166-50.3114 43.2699-49.0281C46.866-47.6876 48.9633-44.7327 50.9505-39.308C52.2651-36.0717 53.9406-33.8831 56.892-32.8345C59.6503-31.7831 62.4773-32.4089 65.4659-33.9089C66.8065-34.9362 68.5144-35.5289 70.2019-35.6254L46.749 28.6297C44.9514 33.6059 47.5199 39.0783 52.4782 40.8967C57.4156 42.6722 62.9476 40.1633 64.7452 35.1663L88.1385-29.1252C89.2902-27.9603 90.2041-26.4216 90.6042-24.7901C91.9604-21.673 93.6527-19.3872 96.4682-18.4358C99.3613-17.3455 102.073-17.9726 105.121-19.531C110.204-22.4826 113.719-23.3959 117.315-22.0554C120.911-20.7525 123.159-18.1212 124.544-14.5716C127.398-9.22258 129.306-6.42911 133.213-5.00924C137.678-3.38928 142.838-5.71536 144.598-10.707C152.892-33.4591 147.435-73.2806 110.894-91.7395L113.499-98.9805C115.397-104.163 112.874-109.433 107.85-111.294C102.79-113.134 97.5395-110.7 95.6211-105.481L93.0157-98.2189C53.1944-107.627 23.3658-80.6799 15.0701-57.829ZM40.3127-66.5654C49.4177-76.8815 63.3395-83.0001 78.1373-82.52C71.0089-76.6355 64.2175-68.2585 59.2967-57.7287C56.8289-60.9899 53.3687-63.6049 49.0144-65.2085C46.1284-66.2668 43.2423-66.7862 40.3127-66.5654ZM71.1275-52.5151C77.8626-66.2908 87.9836-75.2444 96.2207-79.3479C99.9873-70.91 101.952-57.5293 98.2056-42.6234C95.198-46.7012 90.8597-50.0312 86.1849-51.7776C81.5113-53.5045 76.0412-53.6498 71.1275-52.5151ZM110.643-38.9993C113.632-50.2649 113.825-61.0066 112.166-70.1079C123.813-60.9699 130.475-47.336 130.798-33.6429C128.724-35.6339 126.218-37.0983 123.33-38.1774C118.977-39.7434 114.595-39.9887 110.643-38.9993Z"/>
  </g>
  <g id="Heavy-L" transform="matrix(1 0 0 1 2556.29 1556)">
   <path d="M15.0249-57.9692C13.338-53.3559 15.5932-48.8582 19.5886-47.4114C23.0056-46.1891 25.9627-47.067 30.5707-49.0775C34.5563-51.4814 38.4254-52.3459 42.7585-50.8057C47.0527-49.2265 49.2951-45.8348 51.0882-40.0732C52.1684-37.1022 53.6195-35.0118 56.3068-34.0729C58.8704-33.0938 61.4056-33.7763 64.0783-35.2405C66.0221-36.8076 68.5826-37.6451 71.0477-37.6389L46.5715 29.4465C44.9797 33.847 47.2603 38.7266 51.671 40.3486C56.0514 41.9047 60.9812 39.6743 62.573 35.2436L86.9989-31.8507C88.8124-30.2585 90.2255-27.9924 90.7398-25.5608C91.8804-22.6902 93.3157-20.5351 95.9183-19.6609C98.561-18.6617 101.013-19.3499 103.735-20.8586C108.881-24.1809 112.766-25.3344 117.06-23.7552C121.354-22.1905 123.807-19.0083 125.281-14.6084C127.552-10.0512 129.205-7.48446 132.637-6.24766C136.638-4.80087 141.316-6.83467 142.923-11.4424C151.286-34.3853 145.708-74.001 108.865-92.0242L111.642-99.7087C113.339-104.376 111.136-109.035 106.623-110.723C102.096-112.375 97.4627-110.173 95.7357-105.497L92.9581-97.7822C53.1955-107.726 23.3934-81.0115 15.0249-57.9692ZM37.5489-66.2464C47.0016-78.1289 62.5356-85.459 79.3991-84.0571C71.4876-78.0139 63.929-68.7649 58.6149-56.9862C56.1454-60.681 52.5292-63.5034 47.8892-65.1837C44.4566-66.4378 41.024-66.8639 37.5489-66.2464ZM69.3458-52.3087C76.2361-67.009 86.8662-76.8175 95.7959-80.9827C100.067-72.0552 101.877-57.6833 97.6594-41.9581C94.6684-46.3536 90.1304-49.9258 85.1743-51.7771C80.2239-53.6037 74.4376-53.6916 69.3458-52.3087ZM108.901-38.6523C112.398-51.1166 112.551-63.0253 110.407-72.7442C124.226-62.9747 131.344-47.3749 130.929-32.28C128.676-34.9136 125.822-36.8043 122.383-38.0886C117.749-39.7545 113.139-39.9473 108.901-38.6523Z"/>
  </g>
  <g id="Bold-L" transform="matrix(1 0 0 1 2260.66 1556)">
   <path d="M14.9636-57.9521C13.4836-53.8597 15.4631-50.0453 18.8672-48.8137C21.7382-47.7836 24.2422-48.6621 27.7641-50.3729C32.4724-53.4694 36.9725-54.6352 42.0687-52.8022C47.1491-50.9533 49.5832-47.0758 51.1753-40.8918C51.9934-38.2362 53.1827-36.2985 55.5397-35.4904C57.8426-34.6108 60.0167-35.3328 62.3199-36.7434C64.9868-38.9492 68.6-40.0418 71.9884-39.8753L46.4159 30.2372C45.0701 33.9455 47.0047 38.0949 50.7465 39.4786C54.4504 40.7731 58.6422 38.881 59.988 35.1347L85.5181-34.9557C88.1388-32.8855 90.2039-29.7577 90.8566-26.372C91.7507-23.8013 92.8933-21.83 95.2122-21.0556C97.5399-20.1715 99.6689-20.9067 102.014-22.3465C107.266-26.1074 111.59-27.5084 116.67-25.6594C121.751-23.8017 124.472-19.9953 126.069-14.5799C127.684-10.9541 129.022-8.68642 131.885-7.66513C135.302-6.43348 139.344-8.11355 140.744-12.1927C149.191-35.3812 143.423-74.6837 106.292-92.1391L109.3-100.421C110.751-104.451 108.932-108.364 105.05-109.837C101.176-111.259 97.2884-109.349 95.7995-105.341L92.792-97.0207C53.1806-107.588 23.4242-81.2325 14.9636-57.9521ZM34.0102-65.5042C43.8038-79.3529 61.3579-88.405 80.974-85.7391C72.0793-79.5559 63.5233-69.1788 57.6728-55.7139C55.2256-60.0062 51.4322-63.1196 46.4163-64.9071C42.3001-66.4069 38.1838-66.6805 34.0102-65.5042ZM66.9914-51.7272C74.1409-67.7215 85.4234-78.6201 95.2136-82.8249C100.13-73.3201 101.748-57.6816 96.9012-40.7856C93.9556-45.5954 89.1568-49.5269 83.8325-51.5088C78.5214-53.4659 72.2985-53.4547 66.9914-51.7272ZM106.608-37.8866C110.779-51.9756 110.878-65.396 108.083-75.846C124.823-65.2629 132.382-47.041 130.971-30.2468C128.525-33.7465 125.255-36.1972 121.126-37.7351C116.123-39.5313 111.222-39.6253 106.608-37.8866Z"/>
  </g>
  <g id="Semibold-L" transform="matrix(1 0 0 1 1964.7 1556)">
   <path d="M14.9213-57.9403C13.584-54.207 15.3735-50.8637 18.3699-49.7804C20.8645-48.8828 23.0561-49.7617 25.8293-51.266C31.0358-54.8399 35.9708-56.2134 41.5932-54.1786C47.2155-52.1437 49.7818-47.9313 51.2353-41.456C51.8728-39.0179 52.8816-37.1855 55.0109-36.4676C57.1341-35.6566 59.0593-36.4058 61.1076-37.7795C64.273-40.4256 68.6121-41.694 72.637-41.417L46.3085 30.7822C45.1325 34.0133 46.8285 37.6594 50.1092 38.8788C53.3466 39.993 57.0298 38.3341 58.2058 35.0596L84.4972-37.0963C87.6744-34.6966 90.1891-30.9746 90.9372-26.9313C91.6613-24.5673 92.602-22.7227 94.7253-22.017C96.836-21.2123 98.7425-21.9799 100.828-23.3722C106.153-27.4355 110.779-29.0071 116.402-26.9722C122.024-24.9125 124.93-20.6758 126.612-14.5603C127.776-11.5765 128.897-9.51505 131.366-8.64232C134.381-7.55898 137.985-8.9952 139.242-12.71C147.747-36.0678 141.847-75.1543 104.519-92.2184L107.685-100.913C108.967-104.503 107.413-107.902 103.965-109.226C100.542-110.489 97.1683-108.78 95.8436-105.234L92.6775-96.4957C53.1704-107.493 23.4455-81.3849 14.9213-57.9403ZM31.5706-64.9925C41.5993-80.1968 60.546-90.436 82.0597-86.8986C72.4872-80.6189 63.2435-69.4641 57.0233-54.8368C54.5915-59.541 50.6759-62.855 45.4009-64.7163C40.8134-66.3857 36.2258-66.5541 31.5706-64.9925ZM65.3683-51.3263C72.6964-68.2126 84.4288-79.8628 94.8123-84.0948C100.173-74.1921 101.658-57.6805 96.3786-39.9773C93.4641-45.0727 88.4855-49.2519 82.9074-51.3238C77.3477-53.3708 70.8239-53.2914 65.3683-51.3263ZM105.027-37.3588C109.663-52.5678 109.726-67.0304 106.481-77.9843C125.235-66.8404 133.098-46.8108 131.001-28.8451C128.421-32.9419 124.865-35.7786 120.259-37.4913C115.002-39.3775 109.9-39.4034 105.027-37.3588Z"/>
  </g>
  <g id="Medium-L" transform="matrix(1 0 0 1 1668.55 1556)">
   <path d="M14.8893-57.9313C13.6601-54.4704 15.3055-51.4842 17.9928-50.5133C20.202-49.7163 22.1568-50.5955 24.3623-51.9431C29.9465-55.8791 35.2113-57.4101 41.2326-55.2223C47.2659-53.0463 49.9324-48.58 51.2809-41.8839C51.7813-39.6107 52.6533-37.8581 54.6099-37.2086C56.5969-36.4496 58.3332-37.2193 60.1885-38.5651C63.7318-41.5451 68.6212-42.9469 73.1287-42.586L46.2272 31.1955C45.1798 34.0648 46.6949 37.3292 49.626 38.424C52.5097 39.4015 55.8072 37.9194 56.8545 35.0027L83.7231-38.7194C87.3222-36.0698 90.1778-31.8973 90.9982-27.3554C91.5935-25.1481 92.3812-23.3995 94.3562-22.746C96.3023-22.0016 98.0401-22.7937 99.9283-24.15C105.309-28.4425 110.165-30.1435 116.198-27.9675C122.231-25.7547 125.278-21.1917 127.024-14.5455C127.845-12.0485 128.801-10.1434 130.973-9.38327C133.683-8.41238 136.954-9.66371 138.103-13.1022C146.652-36.5884 140.653-75.5112 103.175-92.2785L106.461-101.285C107.614-104.542 106.261-107.551 103.142-108.763C100.061-109.905 97.0772-108.349 95.877-105.152L92.5907-96.0976C53.1626-107.421 23.4616-81.5005 14.8893-57.9313ZM29.7208-64.6045C39.9277-80.8366 59.9304-91.976 82.8829-87.7779C72.7965-81.4249 63.0314-69.6805 56.5308-54.1718C54.1107-59.1883 50.1025-62.6543 44.631-64.5717C39.6861-66.3695 34.7411-66.4582 29.7208-64.6045ZM64.1376-51.0223C71.6012-68.585 83.6746-80.8051 94.5079-85.0578C100.206-74.8534 101.591-57.6796 95.9822-39.3644C93.0915-44.6764 87.9766-49.0434 82.2059-51.1836C76.4578-53.2987 69.7057-53.1675 64.1376-51.0223ZM103.828-36.9586C108.817-53.0168 108.851-68.2696 105.267-79.6056C125.546-68.0365 133.641-46.6363 131.023-27.7823C128.342-32.3318 124.569-35.4612 119.602-37.3065C114.153-39.2608 108.898-39.235 103.828-36.9586Z"/>
  </g>
  <g id="Regular-L" transform="matrix(1 0 0 1 1372.58 1556)">
   <path d="M14.8475-57.9197C13.7595-54.8139 15.2168-52.2936 17.5009-51.4694C19.3378-50.8035 20.9837-51.683 22.4487-52.8264C28.5257-57.2345 34.2206-58.971 40.7623-56.5835C47.3316-54.2237 50.1289-49.4262 51.3403-42.442C51.662-40.3838 52.3555-38.7354 54.0869-38.175C55.8962-37.484 57.3863-38.2805 58.9896-39.5898C63.0259-43.0053 68.6331-44.581 73.7702-44.1108L46.121 31.7346C45.2415 34.1319 46.5206 36.8985 48.9957 37.8308C51.4181 38.6299 54.2124 37.3785 55.092 34.9285L82.7135-40.8365C86.8629-37.861 90.1631-33.1009 91.0779-27.9085C91.5051-25.9057 92.0932-24.2824 93.8748-23.6969C95.6061-23.031 97.1239-23.8552 98.7549-25.1644C104.209-29.756 109.363-31.6257 115.932-29.2659C122.502-26.8533 125.731-21.8647 127.561-14.5261C127.935-12.6641 128.677-10.9629 130.461-10.3497C132.773-9.52552 135.609-10.5357 136.617-13.6138C145.224-37.2674 139.095-75.9767 101.421-92.3569L104.864-101.771C105.849-104.593 104.758-107.094 102.07-108.159C99.4335-109.144 96.9584-107.787 95.9206-105.046L92.4774-95.5784C53.1525-107.327 23.4826-81.6512 14.8475-57.9197ZM27.308-64.0985C37.7473-81.6712 59.1275-93.9847 83.9566-88.9247C73.2-82.4762 62.7548-69.9627 55.8885-53.3043C53.4836-58.7282 49.3545-62.3926 43.6268-64.3831C38.2157-66.3485 32.8047-66.3332 27.308-64.0985ZM62.5324-50.6258C70.1727-69.0708 82.6909-82.0341 94.1109-86.3138C100.248-75.7158 101.502-57.6784 95.4653-38.5649C92.6055-44.1594 87.3127-48.7714 81.291-51.0006C75.297-53.2047 68.2473-53.006 62.5324-50.6258ZM102.265-36.4366C107.714-53.6025 107.711-69.886 103.682-81.7204C125.953-69.5967 134.349-46.4086 131.051-26.396C128.239-31.5361 124.183-35.0473 118.744-37.0654C113.044-39.1087 107.59-39.0155 102.265-36.4366Z"/>
  </g>
  <g id="Light-L" transform="matrix(1 0 0 1 1076.97 1556)">
   <path d="M14.7711-56.6791C13.9312-54.2604 15.0069-52.3318 16.8139-51.6603C18.3645-51.0898 19.6477-51.8548 20.9028-52.7882C27.3997-57.4636 33.3618-59.0664 39.9226-56.6408C46.5301-54.2619 49.5372-49.4834 50.8631-42.1748C51.1848-40.2502 51.8021-38.9072 53.2853-38.404C54.7892-37.8466 56.0312-38.4714 57.52-39.6852C61.8998-43.3489 68.2132-44.7909 73.732-43.9963L46.4264 30.8567C45.6614 32.9104 46.7687 35.2 48.8431 35.9986C50.8838 36.6832 53.22 35.6227 53.985 33.5352L81.2439-41.2373C85.8705-38.2618 89.8386-33.1582 90.8298-27.5459C91.2188-25.7148 91.7687-24.3587 93.2259-23.8687C94.7091-23.2982 95.9979-23.9697 97.5334-25.1835C103.254-29.9469 108.581-31.6639 115.188-29.2849C121.796-26.8724 125.311-21.8265 127.294-14.0299C127.649-12.4923 128.18-11.1156 129.697-10.5788C131.551-9.90723 133.682-10.7265 134.441-13.0985C143.106-36.9812 136.575-75.0988 99.2641-90.9064L102.974-101.046C103.807-103.429 102.907-105.491 100.638-106.403C98.4029-107.236 96.3286-106.108 95.4625-103.805L91.7522-93.6317C53.038-105.552 23.4826-80.5824 14.7711-56.6791ZM24.1208-61.3502C34.2166-80.4498 57.1426-95.3779 85.1208-88.6575C73.6008-82.4762 62.1632-68.8748 54.6098-50.1553C52.3766-56.3807 48.2285-60.465 42.1-62.6082C36.1736-64.7644 30.2472-64.4056 24.1208-61.3502ZM59.9559-48.1256C68.2069-68.4219 81.3168-82.3394 93.3475-86.4092C100.057-75.6013 101.178-56.4379 94.4156-35.5113C91.7467-41.5257 86.1867-46.7675 79.7833-49.0921C73.4266-51.4298 65.7853-50.983 59.9559-48.1256ZM99.8029-33.7455C106.015-52.9345 105.955-70.6876 101.144-82.8083C126.908-69.9211 134.826-43.7176 130.307-22.7698C127.552-28.9595 123.305-33.0624 117.332-35.2523C111.25-37.4292 105.529-37.0497 99.8029-33.7455Z"/>
  </g>
  <g id="Thin-L" transform="matrix(1 0 0 1 781.71 1556)">
   <path d="M14.6702-55.0384C14.1584-53.5284 14.7292-52.3823 15.9052-51.9127C17.0772-51.4684 17.8808-52.082 18.8582-52.7377C25.9104-57.7665 32.2259-59.1927 38.8119-56.7165C45.4699-54.3124 48.7547-49.5591 50.2321-41.8214C50.5538-40.0735 51.07-39.1344 52.2252-38.7069C53.3252-38.3262 54.2391-38.7238 55.5764-39.8115C60.4106-43.8032 67.6579-45.0686 73.6815-43.8448L46.8303 29.6956C46.2167 31.295 47.0968 32.9534 48.6411 33.5754C50.177 34.1086 51.9074 33.3004 52.521 31.6926L79.3003-41.7674C84.5579-38.7919 89.4095-33.2339 90.5017-27.0663C90.8402-25.4624 91.3396-24.4597 92.3676-24.0958C93.5228-23.6515 94.5086-24.1211 95.9179-25.2088C101.992-30.1993 107.546-31.7144 114.204-29.3102C120.862-26.8976 124.756-21.776 126.94-13.3736C127.27-12.2651 127.524-11.3175 128.688-10.8817C129.936-10.4121 131.132-10.9789 131.564-12.417C140.304-36.6025 133.244-73.9376 96.4117-88.988L100.475-100.087C101.106-101.889 100.459-103.37 98.745-104.081C97.0399-104.712 95.4956-103.886 94.8567-102.164L90.793-91.057C52.8865-103.205 23.4826-79.1689 14.6702-55.0384ZM19.9054-57.7154C29.5468-78.8343 54.5174-97.2206 86.6606-88.3041C74.1308-82.4762 61.3807-67.436 52.9186-45.9904C50.9126-53.276 46.7392-57.9156 40.0807-60.2607C33.4727-62.6693 26.8648-61.8561 19.9054-57.7154ZM56.5482-44.8189C65.607-67.5637 79.4993-82.7433 92.3378-86.5354C99.8051-75.4499 100.749-54.7972 93.0273-31.4726C90.6108-38.0423 84.6974-44.1171 77.7892-46.5679C70.9529-49.0823 62.5291-48.3073 56.5482-44.8189ZM96.5467-30.1864C103.769-52.0511 103.633-71.7477 97.7868-84.2471C128.17-70.3502 135.458-40.1585 129.323-17.9739C126.643-25.5519 122.144-30.4372 115.464-32.8543C108.877-35.2079 102.803-34.4498 96.5467-30.1864Z"/>
  </g>
  <g id="Ultralight-L" transform="matrix(1 0 0 1 485.742 1556)">
   <path d="M14.6185-54.198C14.2748-53.1535 14.587-52.4081 15.4397-52.042C16.4178-51.6623 16.9758-52.1983 17.811-52.7118C25.1476-57.9216 31.6441-59.2573 38.243-56.7553C44.9269-54.3382 48.3539-49.5979 49.9089-41.6404C50.2306-39.983 50.6951-39.2507 51.6822-38.8621C52.5753-38.5719 53.3211-38.8531 54.5809-39.8761C59.6478-44.0359 67.3735-45.2108 73.6557-43.7673L47.0371 29.1008C46.5011 30.4675 47.2649 31.8028 48.5377 32.3343C49.815 32.7898 51.2351 32.111 51.7711 30.7488L78.3048-42.0389C83.8856-39.0634 89.1897-33.2727 90.3336-26.8207C90.6463-25.3331 91.1198-24.5114 91.9281-24.2122C92.9151-23.8325 93.7458-24.1987 95.0905-25.2217C101.346-30.3286 107.016-31.7402 113.699-29.3231C120.383-26.9105 124.472-21.7502 126.759-13.0374C127.077-12.1488 127.188-11.4209 128.17-11.0368C129.108-10.6706 129.827-11.1082 130.09-12.0679C138.869-36.4086 131.537-73.3429 94.9508-88.0054L99.1955-99.5958C99.7225-101.101 99.2045-102.284 97.7754-102.892C96.3417-103.419 95.0689-102.749 94.5464-101.324L90.3017-89.7383C52.8089-102.003 23.4826-78.4449 14.6185-54.198ZM17.7463-55.8536C27.155-78.0068 53.1729-98.1644 87.4492-88.1231C74.4024-82.4762 60.9799-66.6991 52.0524-43.8571C50.1627-51.6857 45.9764-56.6098 39.0464-59.0583C32.0894-61.5962 25.1324-60.5503 17.7463-55.8536ZM54.8028-43.1253C64.2753-67.1241 78.5685-82.9502 91.8207-86.6001C99.6758-75.3723 100.529-53.9568 92.3162-29.404C90.029-36.2581 83.9346-42.7596 76.7678-45.275C69.6859-47.8799 60.8613-46.9369 54.8028-43.1253ZM94.8789-28.3635C102.618-51.5985 102.444-72.2907 96.0672-84.984C128.816-70.57 135.781-38.3356 128.818-15.5174C126.178-23.8065 121.549-29.0927 114.507-31.6261C107.662-34.0702 101.407-33.1181 94.8789-28.3635Z"/>
  </g>
  <g id="Black-M" transform="matrix(1 0 0 1 2869.9 1126)">
   <path d="M11.704-52.4497C10.1792-48.3484 12.1992-44.067 15.9961-42.6839C19.3435-41.4884 22.1731-42.1288 27.2581-44.0527C29.4332-44.9944 31.6-45.1784 33.8487-44.3999C36.04-43.564 37.5687-41.6525 39.2905-37.6955C40.5103-34.9783 41.991-33.2397 44.471-32.3407C46.7339-31.4821 49.1413-31.8949 51.7127-33.0749C52.2793-33.4404 52.9654-33.6712 53.6563-33.7902L36.4123 13.4239C34.8584 17.7275 37.0724 22.412 41.3301 23.9714C45.5823 25.5201 50.3237 23.3629 51.8776 19.0538L69.0648-28.2122C69.453-27.6769 69.8225-27.0634 70.0448-26.4302C71.2756-23.8266 72.8023-21.9796 75.1226-21.189C77.5456-20.2791 79.8384-20.6916 82.4667-21.9287C86.3879-23.9203 88.8156-24.4006 91.0069-23.5647C93.1982-22.7803 94.8037-21.2074 95.8191-19.1261C98.529-14.3454 100.199-12.0303 103.598-10.7833C107.394-9.4001 111.708-11.4275 113.171-15.5291C119.546-33.0231 115.367-63.9713 87.3658-78.5691L89.2726-83.8961C90.8946-88.2946 88.6907-92.8435 84.4171-94.4136C80.0918-95.9785 75.5487-93.9245 73.9212-89.4741L72.0143-84.1416C41.1955-90.9932 18.0788-70.012 11.704-52.4497ZM33.1754-59.4085C39.8839-66.2616 49.4938-70.3149 59.6095-70.5102C54.6565-66.1239 49.9198-60.2359 46.3524-52.8721C44.4651-55.1346 41.9159-57.0392 38.7337-58.2363C36.8977-58.9138 35.0616-59.3498 33.1754-59.4085ZM56.2876-48.46C61.455-58.5888 68.9388-64.9201 74.8078-68.0178C77.3698-61.873 79.0072-52.2057 76.4111-41.1159C74.0926-44.059 70.867-46.516 67.4353-47.7919C64.0033-49.0621 59.9568-49.1904 56.2876-48.46ZM86.8827-38.0838C88.8655-46.0556 89.0428-53.5737 88.0676-60.1329C95.6965-53.4926 100.403-44.2109 101.122-34.6804C99.6771-35.8127 98.0077-36.661 96.1719-37.344C92.9894-38.4895 89.7534-38.6859 86.8827-38.0838Z"/>
  </g>
  <g id="Heavy-M" transform="matrix(1 0 0 1 2573.9 1126)">
   <path d="M11.6668-52.7012C10.2695-48.9076 12.1307-45.0962 15.5132-43.8683C18.4451-42.8204 20.9565-43.4858 25.1376-45.193C27.854-46.6824 30.5148-47.1585 33.4263-46.1323C36.2964-45.0648 37.9475-42.7247 39.4691-38.4682C40.4599-35.998 41.7282-34.3272 43.9728-33.5302C46.0736-32.7299 48.2186-33.2141 50.4917-34.3678C51.6164-35.2382 53.0709-35.7205 54.4866-35.7691L36.2106 14.3034C34.8472 18.0759 36.7957 22.2249 40.5551 23.6047C44.298 24.9494 48.4929 23.0468 49.8563 19.258L68.0864-30.8396C69.0775-29.8866 69.8734-28.5937 70.2002-27.217C71.2238-24.8386 72.5029-23.0947 74.6449-22.3709C76.846-21.5411 78.9061-22.0275 81.2251-23.2249C85.1821-25.5629 87.9562-26.2922 90.8264-25.2246C93.6965-24.1843 95.4751-22.0781 96.5649-19.2078C98.7062-15.1713 100.146-13.0479 103.105-11.9728C106.489-10.7448 110.399-12.5041 111.734-16.2955C118.171-33.9549 113.911-64.7564 85.5812-78.9811L87.6316-84.6748C89.0714-88.6102 87.1626-92.6018 83.3494-94.0167C79.5091-95.4129 75.5317-93.5647 74.0754-89.6043L72.025-83.8943C41.2071-91.2539 18.1057-70.4348 11.6668-52.7012ZM30.7676-59.3502C37.8479-67.5936 48.891-72.5901 60.7356-72.0375C55.0875-67.4713 49.6924-60.8313 45.8038-52.4367C43.8991-55.0492 41.1991-57.1178 37.7746-58.3758C35.4518-59.2271 33.129-59.6036 30.7676-59.3502ZM54.7836-48.4889C60.0463-59.3508 67.9732-66.4298 74.463-69.6072C77.4655-63.003 78.9637-52.4707 75.9741-40.7472C73.6542-43.9622 70.258-46.5979 66.5865-47.9675C62.9173-49.3229 58.6164-49.4179 54.7836-48.4889ZM85.4075-37.9928C87.816-46.9498 87.9587-55.4732 86.5822-62.6097C96.0129-55.4225 101.208-44.4972 101.318-33.6825C99.6928-35.3463 97.7014-36.5568 95.3764-37.4245C91.9541-38.6553 88.5205-38.8268 85.4075-37.9928Z"/>
  </g>
  <g id="Bold-M" transform="matrix(1 0 0 1 2277.98 1126)">
   <path d="M11.6252-52.9826C10.3707-49.5331 12.054-46.2475 14.9732-45.1932C17.44-44.3103 19.5957-45.0038 22.7655-46.4685C26.0875-48.5708 29.3008-49.3736 32.9538-48.0703C36.5833-46.7437 38.3714-43.9241 39.6689-39.3325C40.4035-37.1386 41.4342-35.5437 43.4156-34.8609C45.3349-34.1258 47.1865-34.6897 49.1259-35.8141C50.8749-37.2492 53.1888-38.013 55.4154-37.9828L35.9851 15.2873C34.8348 18.4656 36.4862 22.0155 39.6881 23.1944C42.8613 24.311 46.4449 22.6932 47.5952 19.4863L66.9919-33.7786C68.6574-32.3584 69.9303-30.3056 70.374-28.0972C71.1658-25.9707 72.1678-24.3422 74.1106-23.6929C76.0634-22.9528 77.863-23.5219 79.8361-24.6748C83.8332-27.4003 86.9948-28.4082 90.6244-27.0815C94.2539-25.7548 96.2261-23.0522 97.3991-19.2993C98.9045-16.0952 100.086-14.1862 102.553-13.3034C105.477-12.2491 108.935-13.7085 110.127-17.1528C116.632-34.9973 112.283-65.6348 83.5848-79.442L85.7959-85.5459C87.0319-88.9633 85.4531-92.3314 82.1552-93.5727C78.8572-94.7802 75.5126-93.1623 74.2479-89.75L72.0369-83.6176C41.2201-91.5457 18.1359-70.9077 11.6252-52.9826ZM28.0742-59.2851C35.5702-69.0837 48.2167-75.1353 61.9954-73.7459C55.5696-68.9787 49.4379-61.4973 45.1901-51.9497C43.2659-54.9536 40.3973-57.2058 36.7017-58.5319C33.8344-59.5776 30.9671-59.8876 28.0742-59.2851ZM53.1011-48.5212C58.4705-60.2032 66.893-68.1185 74.0773-71.385C77.5726-64.2671 78.9151-52.7671 75.4851-40.3348C73.1637-43.8539 69.5767-46.6895 65.637-48.1638C61.7024-49.6146 57.1169-49.6725 53.1011-48.5212ZM83.7573-37.891C86.6419-47.9501 86.7459-57.5981 84.9205-65.3805C96.367-57.5815 102.109-44.8174 101.538-32.5663C99.7104-34.8245 97.3588-36.4402 94.4864-37.5145C90.7959-38.8407 87.1414-38.9844 83.7573-37.891Z"/>
  </g>
  <g id="Semibold-M" transform="matrix(1 0 0 1 1981.82 1126)">
   <path d="M11.5966-53.1765C10.4404-49.9643 12.0011-47.0412 14.6008-46.1066C16.7471-45.3375 18.6575-46.0503 21.1302-47.3478C24.8696-49.8726 28.4639-50.9006 32.628-49.4063C36.7811-47.9011 38.6636-44.7509 39.8067-39.9284C40.3646-37.925 41.2315-36.3824 43.0314-35.7782C44.8257-35.0881 46.475-35.707 48.1843-36.8111C50.3637-38.6356 53.2701-39.5934 56.0558-39.509L35.8296 15.9656C34.8262 18.7343 36.2729 21.8712 39.0904 22.9116C41.8709 23.8708 45.0331 22.4494 46.0364 19.6437L66.2374-35.8048C68.3679-34.0624 69.9695-31.4857 70.4939-28.704C71.1258-26.7511 71.9369-25.2022 73.7422-24.6043C75.5239-23.926 77.144-24.5521 78.8786-25.6743C82.9033-28.667 86.3321-29.8669 90.4851-28.3616C94.6382-26.8375 96.7439-23.7237 97.9742-19.3623C99.0412-16.7321 100.045-14.971 102.173-14.2208C104.78-13.2861 107.925-14.5387 109.019-17.7439C115.572-35.7159 111.16-66.2403 82.2085-79.7598L84.5303-86.1464C85.6259-89.2067 84.2747-92.145 81.3318-93.2666C78.4078-94.344 75.4995-92.8849 74.3669-89.8505L72.0451-83.4269C41.2291-91.7468 18.1567-71.2337 11.5966-53.1765ZM26.2173-59.2401C34-70.111 47.7518-76.8899 62.8639-74.9237C55.902-70.0178 49.2625-61.9564 44.7671-51.614C42.8294-54.8877 39.8445-57.2664 35.962-58.6395C32.7193-59.8192 29.4766-60.0833 26.2173-59.2401ZM51.9413-48.5435C57.3841-60.7908 66.1483-69.2828 73.8113-72.6107C77.6464-65.1386 78.8815-52.9715 75.1481-40.0505C72.8256-43.7792 69.1071-46.7526 64.9824-48.2991C60.8649-49.8157 56.0832-49.8479 51.9413-48.5435ZM82.6196-37.8208C85.8326-48.6396 85.9099-59.063 83.775-67.2906C96.6111-59.0698 102.729-45.0382 101.69-31.7968C99.7226-34.4648 97.1226-36.3598 93.8729-37.5766C89.9974-38.9686 86.1906-39.093 82.6196-37.8208Z"/>
  </g>
  <g id="Medium-M" transform="matrix(1 0 0 1 1685.53 1126)">
   <path d="M11.5748-53.3236C10.4932-50.2913 11.961-47.6431 14.3185-46.7991C16.2218-46.1163 17.9461-46.8438 19.8902-48.0146C23.9462-50.8597 27.8293-52.0584 32.381-50.4194C36.931-48.7787 38.8851-45.3779 39.9111-40.3802C40.3351-38.5212 41.0779-37.0183 42.7401-36.4738C44.4395-35.8178 45.9354-36.4784 47.4704-37.5671C49.9761-39.6868 53.3318-40.7918 56.5413-40.6661L35.7117 16.4799C34.8197 18.938 36.1111 21.7618 38.6372 22.6972C41.1199 23.5371 43.9625 22.2646 44.8545 19.7631L65.6653-37.3412C68.1483-35.3545 69.9992-32.3806 70.5847-29.1641C71.0955-27.3429 71.7617-25.8543 73.4628-25.2954C75.1148-24.664 76.5988-25.3332 78.1526-26.4322C82.1982-29.6274 85.8295-30.973 90.3795-29.3323C94.9296-27.6584 97.1365-24.2328 98.4103-19.4101C99.1448-17.2151 100.014-15.566 101.884-14.9163C104.251-14.0724 107.159-15.1683 108.179-18.192C114.768-36.2608 110.309-66.6995 81.165-80.0007L83.5707-86.6017C84.5598-89.3913 83.3811-92.0036 80.7075-93.0345C78.0671-94.0133 75.4896-92.6745 74.4571-89.9267L72.0513-83.2823C41.2358-91.8992 18.1724-71.4809 11.5748-53.3236ZM24.8094-59.206C32.8094-70.8899 47.3994-78.2203 63.5224-75.8168C56.154-70.8058 49.1294-62.3046 44.4463-51.3594C42.4985-54.8378 39.4254-57.3124 35.4011-58.721C31.8738-60.0024 28.3465-60.2317 24.8094-59.206ZM51.0618-48.5603C56.5603-61.2364 65.5837-70.1655 73.6097-73.5401C77.7024-65.7993 78.8561-53.1264 74.8925-39.8349C72.5692-43.7226 68.751-46.8005 64.4861-48.4018C60.2299-49.9682 55.2994-49.981 51.0618-48.5603ZM81.757-37.7676C85.2189-49.1625 85.2759-60.1737 82.9064-68.7389C96.7961-60.1983 103.2-45.2056 101.805-31.2133C99.7318-34.192 96.9436-36.2989 93.4077-37.6237C89.392-39.0655 85.4697-39.1754 81.757-37.7676Z"/>
  </g>
  <g id="Regular-M" transform="matrix(1 0 0 1 1389.36 1126)">
   <path d="M11.5465-53.5155C10.5621-50.7178 11.9087-48.428 13.9502-47.7025C15.5365-47.1322 17.0183-47.8788 18.2729-48.8843C22.7417-52.1472 27.0016-53.5687 32.0588-51.7407C37.1266-49.9233 39.1741-46.1956 40.0474-40.9696C40.2966-39.2989 40.8774-37.8478 42.3602-37.381C43.9359-36.7695 45.2317-37.4845 46.5391-38.5532C49.4705-41.058 53.4122-42.3548 57.1746-42.1755L35.5579 17.1507C34.8112 19.2037 35.9001 21.6191 38.0461 22.4175C40.1403 23.1018 42.5662 22.0235 43.3128 19.9187L64.919-39.3451C67.8619-37.0398 70.038-33.5478 70.7033-29.7643C71.056-28.1147 71.5333-26.7048 73.0985-26.1968C74.5812-25.6265 75.8876-26.3521 77.2056-27.4208C81.2785-30.8802 85.174-32.4157 90.2418-30.5983C95.3096-28.7292 97.6485-24.897 98.979-19.4725C99.28-17.845 99.9739-16.3421 101.508-15.8236C103.56-15.098 106.161-15.9894 107.083-18.7765C113.719-36.9715 109.198-67.2983 79.8038-80.315L82.3191-87.1956C83.1693-89.6321 82.2156-91.8193 79.8932-92.7317C77.6226-93.5819 75.4766-92.4001 74.5747-90.026L72.0594-83.0936C41.2447-92.0981 18.193-71.8034 11.5465-53.5155ZM22.9729-59.1616C31.2565-71.9059 46.9396-79.9557 64.3813-76.9817C56.4827-71.8335 48.9559-62.7586 44.0278-51.0273C42.0668-54.7726 38.8787-57.3723 34.6696-58.8274C30.771-60.2414 26.8725-60.4253 22.9729-59.1616ZM49.9147-48.5824C55.4859-61.8175 64.8472-71.317 73.3467-74.7523C77.7753-66.6612 78.823-53.3285 74.5591-39.5537C72.2348-43.6487 68.2865-46.8629 63.8387-48.5356C59.4015-50.1671 54.277-50.1545 49.9147-48.5824ZM80.6319-37.6981C84.4184-49.8445 84.449-61.6225 81.7735-70.6281C97.0375-61.6703 103.814-45.4239 101.955-30.4522C99.7438-33.8363 96.71-36.2194 92.8009-37.6851C88.6023-39.1919 84.5294-39.2829 80.6319-37.6981Z"/>
  </g>
  <g id="Light-M" transform="matrix(1 0 0 1 1093.63 1126)">
   <path d="M11.478-52.4032C10.7161-50.2215 11.7205-48.4623 13.3342-47.8736C14.6638-47.3889 15.8205-48.0328 16.8869-48.85C21.7322-52.3525 26.2316-53.6542 31.3059-51.7921C36.4079-49.9576 38.6437-46.247 39.6196-40.73C39.8688-39.1791 40.3812-38.0018 41.6415-37.5863C42.9435-37.0946 44.0169-37.6556 45.2216-38.6388C48.4609-41.366 53.0358-42.5431 57.1404-42.0728L35.8317 16.3636C35.1877 18.1086 36.1225 20.0962 37.9092 20.7748C39.6612 21.3565 41.6764 20.4493 42.3204 18.6696L63.6015-39.7044C66.9721-37.3992 69.7471-33.5991 70.4808-29.4392C70.7993-27.9436 71.2424-26.7732 72.5167-26.3508C73.777-25.8661 74.8781-26.4547 76.1105-27.4379C80.423-31.0513 84.4725-32.45 89.5745-30.6155C94.6765-28.7463 97.2721-24.8627 98.7395-19.0276C99.0234-17.691 99.529-16.479 100.824-16.0289C102.465-15.4403 104.433-16.1605 105.132-18.3146C111.819-36.7149 106.939-66.5112 77.8703-79.0146L80.6251-86.5454C81.3384-88.5883 80.5559-90.382 78.6099-91.1575C76.6986-91.8708 74.912-90.8944 74.164-88.9138L71.4092-81.3483C41.142-90.5068 18.193-70.8452 11.478-52.4032ZM20.1154-56.6976C28.0909-70.8108 45.1601-81.2048 65.4251-76.7421C56.842-71.8335 48.4255-61.7833 42.8814-48.204C41.0743-52.668 37.8691-55.6441 33.3007-57.2361C28.9402-58.8211 24.5796-58.6971 20.1154-56.6976ZM47.6047-46.3408C53.7235-61.2358 63.6152-71.5907 72.6623-74.8378C77.6042-66.5585 78.5321-52.2163 73.618-36.816C71.4648-41.2874 67.2769-45.0663 62.487-46.8245C57.7247-48.5758 52.0697-48.3408 47.6047-46.3408ZM78.4246-35.2855C82.8955-49.2456 82.8748-62.3412 79.4977-71.6034C97.8931-61.9612 104.242-43.0113 101.288-27.2012C99.1278-31.5263 95.9229-34.4399 91.5347-36.0595C86.9939-37.6862 82.6815-37.5204 78.4246-35.2855Z"/>
  </g>
  <g id="Thin-M" transform="matrix(1 0 0 1 798.224 1126)">
   <path d="M11.3875-50.9323C10.9198-49.5652 11.4716-48.5075 12.5195-48.0999C13.5097-47.7283 14.2364-48.2365 15.0538-48.8048C20.397-52.6241 25.2132-53.7674 30.3102-51.86C35.4574-50.0028 37.9421-46.3148 39.0538-40.4132C39.303-39.0207 39.7249-38.2055 40.691-37.8579C41.6309-37.5246 42.4101-37.8819 43.479-38.752C47.1257-41.7733 52.5379-42.792 57.0951-41.937L36.1937 15.3226C35.6855 16.6603 36.4167 18.0821 37.7281 18.6023C39.0276 19.0482 40.4996 18.3673 41.0078 17.0176L61.8589-40.1797C65.7953-37.8744 69.3624-33.667 70.1866-29.0092C70.4599-27.7173 70.8577-26.8638 71.7473-26.5545C72.7134-26.1829 73.5429-26.5905 74.6621-27.4605C79.2914-31.2776 83.5446-32.4952 88.6919-30.6381C93.8392-28.7689 96.7742-24.8175 98.4227-18.4392C98.6839-17.4873 98.9406-16.6601 99.9188-16.3005C101.017-15.8929 102.147-16.3868 102.552-17.7035C109.307-36.3754 103.952-65.4702 75.313-77.2947L78.3847-85.6855C78.9169-87.2078 78.3607-88.481 76.9126-89.0755C75.4766-89.6078 74.1651-88.9029 73.6209-87.4428L70.5492-79.04C41.0063-88.4022 18.193-69.5779 11.3875-50.9323ZM16.3361-53.4388C23.9043-69.3624 42.8065-82.8568 66.8055-76.4253C57.3173-71.8335 47.7239-60.4934 41.3652-44.47C39.7617-49.8844 36.5339-53.3584 31.4903-55.1315C26.5187-56.9428 21.5471-56.4114 16.3361-53.4388ZM44.5496-43.3762C51.3925-60.4663 61.9858-71.9528 71.757-74.951C77.3779-66.4228 78.1474-50.7453 72.3734-33.1951C70.4464-38.1644 65.9417-42.6901 60.6992-44.5615C55.5069-46.4711 49.1503-45.9419 44.5496-43.3762ZM75.5052-32.0946C80.8814-48.4535 80.7928-63.2917 76.4878-72.8933C99.0246-62.3459 104.808-39.8204 100.405-22.9013C98.3131-28.4711 94.8819-32.0863 89.86-33.9096C84.8666-35.6947 80.2373-35.1895 75.5052-32.0946Z"/>
  </g>
  <g id="Ultralight-M" transform="matrix(1 0 0 1 502.18 1126)">
   <path d="M11.3411-50.1788C11.0241-49.2291 11.3441-48.5307 12.1023-48.2158C12.9185-47.9022 13.425-48.3408 14.1149-48.7816C19.7131-52.7632 24.6916-53.8253 29.8002-51.8947C34.9706-50.026 37.5828-46.3496 38.764-40.2509C39.0133-38.9396 39.3888-38.3098 40.2042-37.997C40.9586-37.7448 41.5871-37.9978 42.5865-38.8099C46.4418-41.982 52.2829-42.9195 57.0719-41.8675L36.3792 14.7894C35.9405 15.9184 36.5674 17.0504 37.6354 17.4895C38.703 17.8659 39.8969 17.3009 40.3355 16.1714L60.9664-40.4231C65.1926-38.1178 69.1654-33.7018 70.0359-28.789C70.286-27.6014 70.6607-26.9101 71.3532-26.6588C72.1686-26.3452 72.859-26.6601 73.9203-27.4721C78.7119-31.3935 83.0694-32.5184 88.2399-30.6497C93.4103-28.7805 96.5192-24.7943 98.2604-18.1378C98.51-17.383 98.6393-16.7528 99.4551-16.4396C100.275-16.1247 100.976-16.5027 101.231-17.3906C108.021-36.2015 102.422-64.937 74.0032-76.4137L77.2372-85.245C77.6767-86.5008 77.2363-87.5073 76.0433-88.0091C74.8507-88.4486 73.7826-87.8828 73.3427-86.6894L70.1088-77.8577C40.9367-87.3242 18.193-68.9287 11.3411-50.1788ZM14.4004-51.7697C21.7599-68.6206 41.601-83.703 67.5126-76.263C57.5607-71.8335 47.3646-59.8327 40.5885-42.5574C39.0894-48.4587 35.85-52.1877 30.563-54.0535C25.2784-55.9807 19.9939-55.2406 14.4004-51.7697ZM42.9847-41.8578C50.1986-60.0722 61.1512-72.1383 71.2934-75.0089C77.262-66.3532 77.9503-49.9919 71.7358-31.3405C69.9248-36.5648 65.2578-41.473 59.7834-43.4023C54.3709-45.3931 47.6551-44.7133 42.9847-41.8578ZM74.01-30.4602C79.8498-48.0478 79.7264-63.7785 74.9462-73.554C99.6042-62.5429 105.097-38.186 99.9531-20.699C97.8958-26.9063 94.3487-30.8808 89.0022-32.8084C83.7771-34.6746 78.9855-33.9956 74.01-30.4602Z"/>
  </g>
  <g id="Black-S" transform="matrix(1 0 0 1 2883.47 696)">
   <path d="M9.17969-48.584C7.95898-45.3125 9.57031-41.8457 12.6465-40.7227C15.3809-39.7461 17.6758-40.2344 21.9238-41.7969C23.4863-42.3828 25.0488-42.4316 26.6113-41.8945C28.125-41.3086 29.2969-39.9414 30.7129-36.9141C31.7383-34.7168 32.959-33.3496 34.9609-32.6172C36.7676-31.9336 38.7207-32.2266 40.8203-33.1543C41.1133-33.3008 41.4551-33.3984 41.7969-33.4961L28.6133 2.58789C27.3438 6.10352 29.1504 9.91211 32.6172 11.1816C36.084 12.4512 39.9414 10.6934 41.2109 7.17773L54.3457-28.9551C54.4922-28.6621 54.6875-28.3691 54.834-28.0762C55.8594-25.9766 57.1289-24.5117 58.9844-23.877C60.9375-23.1445 62.793-23.4375 64.9414-24.4141C68.0176-25.8789 69.8242-26.1719 71.3379-25.5859C72.8516-25.0488 74.0723-23.9746 74.8535-22.5586C77.1484-18.6035 78.5156-16.748 81.2988-15.7227C84.375-14.5996 87.8418-16.2598 89.0137-19.5312C93.9941-33.2031 90.7227-57.4707 68.8965-68.9941L70.3613-73.0957C71.6797-76.6602 69.873-80.3711 66.4062-81.6406C62.8906-82.9102 59.1797-81.25 57.8613-77.6367L56.3965-73.5352C32.2754-78.7598 14.1602-62.3047 9.17969-48.584ZM26.5625-54.0527C31.6895-59.082 38.8672-62.1094 46.4355-62.4023C42.7246-59.0332 39.1602-54.5898 36.4258-49.0234C34.9609-50.7324 33.0078-52.1973 30.5664-53.125C29.248-53.6133 27.9297-53.9551 26.5625-54.0527ZM44.4336-45.459C48.4863-53.2715 54.248-58.0566 58.6914-60.4492C60.5957-55.7617 61.9141-48.3887 59.9609-39.7949C58.1543-42.041 55.6641-43.9453 53.0273-44.9219C50.3906-45.8984 47.2656-45.9961 44.4336-45.459ZM68.4082-37.3535C69.873-43.4082 70.0195-49.0723 69.3359-54.0527C74.9512-48.9746 78.4668-42.041 79.1504-34.9121C78.0762-35.6934 76.8555-36.2793 75.5371-36.7676C73.0957-37.6465 70.6055-37.793 68.4082-37.3535Z"/>
  </g>
  <g id="Heavy-S" transform="matrix(1 0 0 1 2587.25 696)">
   <path d="M9.15664-48.9412C8.01661-45.8541 9.53574-42.7216 12.3123-41.7138C14.724-40.8524 16.7884-41.3753 20.2874-42.7765C22.2647-43.8003 24.2191-44.1142 26.3463-43.3697C28.4362-42.5878 29.6887-40.8518 30.9203-37.6055C31.7498-35.6042 32.7976-34.26 34.6267-33.6083C36.3296-32.9593 38.0869-33.3329 39.9445-34.2491C40.6754-34.799 41.5934-35.1271 42.5114-35.2017L28.4058 3.4407C27.2861 6.54145 28.8853 9.94668 31.9718 11.0779C35.0468 12.1861 38.4893 10.6242 39.609 7.51194L53.6773-31.1563C54.2847-30.506 54.7682-29.6714 54.9953-28.7907C55.8479-26.8639 56.9099-25.4567 58.6502-24.8681C60.4419-24.1933 62.1245-24.5669 64.0194-25.5204C67.0956-27.2618 69.1788-27.7853 71.2687-27.0034C73.3586-26.2474 74.6946-24.7237 75.5219-22.6854C77.3328-19.3296 78.5271-17.6009 80.9646-16.7138C83.7412-15.706 86.9429-17.1587 88.0341-20.2458C93.0607-34.0329 89.7661-58.2428 67.6173-69.5127L69.1743-73.8448C70.3544-77.0635 68.7782-80.348 65.6572-81.5023C62.5103-82.6451 59.2373-81.1348 58.0457-77.8903L56.4887-73.5467C32.2984-79.1862 14.1832-62.7887 9.15664-48.9412ZM24.8684-54.3178C30.3526-60.3612 38.5791-63.8957 47.2653-63.7392C43.0473-60.1856 39.0334-55.2237 36.1031-49.0119C34.6037-50.9283 32.5238-52.4854 29.921-53.4477C28.2454-54.0627 26.5698-54.393 24.8684-54.3178ZM43.4425-45.7701C47.5067-53.9975 53.5796-59.3128 58.484-61.7976C60.6994-56.7413 61.9141-48.7575 59.7074-39.8295C57.8777-42.26 55.2722-44.2449 52.4742-45.2907C49.6761-46.3248 46.4013-46.4225 43.4425-45.7701ZM67.4286-37.584C69.1701-44.2495 69.2935-50.605 68.3564-56.0465C75.1125-50.588 79.1006-42.5942 79.4039-34.4742C78.1684-35.5896 76.6941-36.4176 75.0185-37.0442C72.4158-37.9807 69.7872-38.1387 67.4286-37.584Z"/>
  </g>
  <g id="Bold-S" transform="matrix(1 0 0 1 2291.08 696)">
   <path d="M9.13086-49.3408C8.08105-46.46 9.49707-43.7012 11.9385-42.8223C13.9893-42.0898 15.7959-42.6514 18.457-43.8721C20.8984-45.3857 23.291-45.9961 26.0498-45.0195C28.7842-44.0186 30.127-41.8701 31.1523-38.3789C31.7627-36.5967 32.6172-35.2783 34.2529-34.7168C35.8398-34.1064 37.3779-34.5703 38.9648-35.4736C40.1855-36.4746 41.748-37.0605 43.3105-37.1094L28.1738 4.39453C27.2217 7.03125 28.5889 9.98535 31.25 10.9619C33.8867 11.8896 36.8652 10.5469 37.8174 7.88574L52.9297-33.6182C54.0527-32.5684 54.8584-31.1279 55.1758-29.5898C55.835-27.8564 56.665-26.5137 58.2764-25.9766C59.8877-25.3662 61.377-25.8301 62.9883-26.7578C66.0645-28.8086 68.457-29.5898 71.1914-28.5889C73.9258-27.5879 75.3906-25.5615 76.2695-22.8271C77.5391-20.1416 78.54-18.5547 80.5908-17.8223C83.0322-16.9434 85.9375-18.1641 86.9385-21.0449C92.0166-34.9609 88.6963-59.1064 66.1865-70.0928L67.8467-74.6826C68.8721-77.5146 67.5537-80.3223 64.8193-81.3477C62.085-82.3486 59.3018-81.0059 58.252-78.1738L56.5918-73.5596C32.3242-79.6631 14.209-63.3301 9.13086-49.3408ZM22.9736-54.6143C28.8574-61.792 38.2568-65.8936 48.1934-65.2344C43.4082-61.4746 38.8916-55.9326 35.7422-48.999C34.2041-51.1475 31.9824-52.8076 29.1992-53.8086C27.124-54.5654 25.0488-54.8828 22.9736-54.6143ZM42.334-46.1182C46.4111-54.8096 52.832-60.7178 58.252-63.3057C60.8154-57.8369 61.9141-49.1699 59.4238-39.8682C57.5684-42.5049 54.834-44.5801 51.8555-45.7031C48.877-46.8018 45.4346-46.8994 42.334-46.1182ZM66.333-37.8418C68.3838-45.1904 68.4814-52.3193 67.2607-58.2764C75.293-52.3926 79.8096-43.2129 79.6875-33.9844C78.2715-35.4736 76.5137-36.5723 74.4385-37.3535C71.6553-38.3545 68.8721-38.5254 66.333-37.8418Z"/>
  </g>
  <g id="Semibold-S" transform="matrix(1 0 0 1 1994.74 696)">
   <path d="M9.11309-49.6163C8.12549-46.8776 9.47041-44.3766 11.6808-43.5865C13.4827-42.943 15.1116-43.5312 17.1951-44.6274C19.9564-46.4788 22.6512-47.2936 25.8454-46.157C29.0241-45.005 30.4291-42.5722 31.3123-38.9121C31.7716-37.281 32.4928-35.9804 33.9952-35.4811C35.5021-34.8974 36.8892-35.4234 38.2895-36.3179C39.8479-37.6299 41.8547-38.3936 43.8615-38.4246L28.0139 5.05215C27.1772 7.36895 28.3845 10.012 30.7523 10.8819C33.0869 11.6853 35.7455 10.4936 36.5821 8.14346L52.4143-35.3155C53.8928-33.9902 54.9206-32.1321 55.3002-30.1408C55.8261-28.5407 56.4962-27.2424 58.0187-26.7408C59.5056-26.1749 60.8615-26.701 62.2773-27.6109C65.3535-29.875 67.9594-30.834 71.1381-29.6819C74.3168-28.5121 75.8705-26.1392 76.785-22.9249C77.6813-20.7015 78.5489-19.2123 80.3331-18.5865C82.5435-17.7965 85.2443-18.8572 86.1831-21.5959C91.2968-35.6008 87.9587-59.7019 65.2001-70.4927L66.9313-75.2603C67.8501-77.8257 66.7095-80.3045 64.2417-81.241C61.7917-82.1442 59.3462-80.917 58.3941-78.3693L56.6629-73.5685C32.342-79.9919 14.2268-63.7033 9.11309-49.6163ZM21.6673-54.8187C27.8266-62.7784 38.0347-67.271 48.8332-66.2652C43.657-62.3633 38.7938-56.4214 35.4934-48.9901C33.9286-51.2985 31.6092-53.0298 28.7016-54.0574C26.3509-54.912 24.0002-55.2205 21.6673-54.8187ZM41.5697-46.3581C45.6558-55.3694 52.3166-61.6864 58.092-64.3454C60.8954-58.5923 61.9141-49.4543 59.2283-39.8948C57.3551-42.6737 54.5318-44.8111 51.4289-45.9875C48.326-47.1306 44.7681-47.2282 41.5697-46.3581ZM65.5776-38.0195C67.8417-45.8392 67.9216-53.5013 66.5054-59.8138C75.4174-53.6367 80.2983-43.6395 79.883-33.6467C78.3426-35.3937 76.3893-36.6789 74.0386-37.5668C71.131-38.6122 68.2411-38.792 65.5776-38.0195Z"/>
  </g>
  <g id="Medium-S" transform="matrix(1 0 0 1 1698.31 696)">
   <path d="M9.09961-49.8252C8.15918-47.1943 9.4502-44.8887 11.4854-44.166C13.0986-43.5898 14.5928-44.1982 16.2383-45.2002C19.2422-47.3076 22.166-48.2773 25.6904-47.0195C29.2061-45.7529 30.6582-43.1045 31.4336-39.3164C31.7783-37.7998 32.3984-36.5127 33.7998-36.0605C35.2461-35.4971 36.5186-36.0703 37.7773-36.958C39.5918-38.5059 41.9355-39.4043 44.2793-39.4219L27.8926 5.55078C27.1436 7.625 28.2295 10.0322 30.375 10.8213C32.4805 11.5303 34.8965 10.4531 35.6455 8.33887L52.0234-36.6025C53.7715-35.0684 54.9678-32.8936 55.3945-30.5586C55.8193-29.0596 56.3682-27.7949 57.8232-27.3203C59.2158-26.7881 60.4707-27.3613 61.7383-28.2578C64.8145-30.6836 67.582-31.7773 71.0977-30.5107C74.6133-29.2129 76.2344-26.5771 77.1758-22.999C77.7891-21.126 78.5557-19.7109 80.1377-19.166C82.1729-18.4434 84.7188-19.3828 85.6104-22.0137C90.751-36.0859 87.3994-60.1533 64.4521-70.7959L66.2373-75.6982C67.0752-78.0615 66.0693-80.291 63.8037-81.1602C61.5693-81.9893 59.3799-80.8496 58.502-78.5176L56.7168-73.5752C32.3555-80.2412 14.2402-63.9863 9.09961-49.8252ZM20.6768-54.9736C27.0449-63.5264 37.8662-68.3154 49.3184-67.0469C43.8457-63.0371 38.7197-56.792 35.3047-48.9834C33.7197-51.4131 31.3262-53.1982 28.3242-54.2461C25.7646-55.1748 23.2051-55.4766 20.6768-54.9736ZM40.9902-46.54C45.083-55.7939 51.9258-62.4209 57.9707-65.1338C60.9561-59.165 61.9141-49.6699 59.0801-39.915C57.1934-42.8018 54.3027-44.9863 51.1055-46.2031C47.9082-47.3799 44.2627-47.4775 40.9902-46.54ZM65.0049-38.1543C67.4307-46.3311 67.4971-54.3975 65.9326-60.9795C75.5117-54.5801 80.6689-43.9629 80.0312-33.3906C78.3965-35.333 76.2949-36.7598 73.7354-37.7285C70.7334-38.8076 67.7627-38.9941 65.0049-38.1543Z"/>
  </g>
  <g id="Regular-S" transform="matrix(1 0 0 1 1401.97 696)">
   <path d="M9.08203-50.0977C8.20312-47.6074 9.42383-45.5566 11.2305-44.9219C12.5977-44.4336 13.916-45.0684 14.9902-45.9473C18.3105-48.3887 21.5332-49.5605 25.4883-48.1445C29.4434-46.7285 30.957-43.7988 31.5918-39.8438C31.7871-38.4766 32.2754-37.207 33.5449-36.8164C34.9121-36.2793 36.0352-36.9141 37.1094-37.793C39.2578-39.6484 42.041-40.7227 44.8242-40.7227L27.7344 6.20117C27.0996 7.95898 28.0273 10.0586 29.8828 10.7422C31.6895 11.3281 33.7891 10.4004 34.4238 8.59375L51.5137-38.2812C53.6133-36.4746 55.0293-33.8867 55.5176-31.1035C55.8105-29.7363 56.2012-28.5156 57.5684-28.0762C58.8379-27.5879 59.9609-28.2227 61.0352-29.1016C64.1113-31.7383 67.0898-33.0078 71.0449-31.5918C75-30.127 76.709-27.1484 77.6855-23.0957C77.9297-21.6797 78.5645-20.3613 79.8828-19.9219C81.6895-19.2871 84.0332-20.0684 84.8633-22.5586C90.0391-36.7188 86.6699-60.7422 63.4766-71.1914L65.332-76.2695C66.0645-78.3691 65.2344-80.2734 63.2324-81.0547C61.2793-81.7871 59.4238-80.7617 58.6426-78.7109L56.7871-73.584C32.373-80.5664 14.2578-64.3555 9.08203-50.0977ZM19.3848-55.1758C26.0254-64.502 37.6465-69.6777 49.9512-68.0664C44.0918-63.916 38.623-57.2754 35.0586-48.9746C33.4473-51.5625 30.957-53.418 27.832-54.4922C25-55.5176 22.168-55.8105 19.3848-55.1758ZM40.2344-46.7773C44.3359-56.3477 51.416-63.3789 57.8125-66.1621C61.0352-59.9121 61.9141-49.9512 58.8867-39.9414C56.9824-42.9688 54.0039-45.2148 50.6836-46.4844C47.3633-47.7051 43.6035-47.8027 40.2344-46.7773ZM64.2578-38.3301C66.8945-46.9727 66.9434-55.5664 65.1855-62.5C75.6348-55.8105 81.1523-44.3848 80.2246-33.0566C78.4668-35.2539 76.1719-36.8652 73.3398-37.9395C70.2148-39.0625 67.1387-39.2578 64.2578-38.3301Z"/>
  </g>
  <g id="Light-S" transform="matrix(1 0 0 1 1106.13 696)">
   <path d="M9.02148-49.1138C8.33935-47.1685 9.25733-45.5869 10.6856-45.0732C11.8257-44.6606 12.8565-45.2046 13.7642-45.917C17.4175-48.5703 20.8521-49.6362 24.8223-48.1899C28.8076-46.7588 30.4878-43.8442 31.2134-39.6318C31.4087-38.3706 31.8364-37.3433 32.9092-36.998C34.0342-36.5669 34.9605-37.0654 35.9439-37.8687C38.3648-39.9209 41.708-40.8892 44.7939-40.6318L27.9766 5.50489C27.4326 6.99024 28.2241 8.71144 29.7617 9.28907C31.2656 9.78419 33.002 9.00782 33.5459 7.48878L50.3482-38.5991C52.8262-36.7925 54.772-33.9321 55.3208-30.8159C55.5835-29.585 55.9438-28.5762 57.0537-28.2124C58.1265-27.7998 59.0679-28.3135 60.0664-29.1167C63.3545-31.8896 66.4692-33.0381 70.4546-31.6069C74.4399-30.1421 76.376-27.1182 77.4736-22.7022C77.7026-21.5435 78.1709-20.4824 79.2773-20.1035C80.7207-19.5898 82.5044-20.2197 83.1377-22.1499C88.3589-36.4917 84.6719-60.0459 61.7661-70.041L63.8335-75.6943C64.4448-77.4458 63.7661-79.002 62.0972-79.6621C60.4619-80.2734 58.9243-79.4297 58.2793-77.7271L56.2119-72.0401C32.2822-79.1587 14.2578-63.5078 9.02148-49.1138ZM16.857-52.9961C23.2251-63.5332 36.0723-70.7827 50.8745-67.8545C44.4097-63.916 38.1538-56.4126 34.0444-46.4771C32.5693-49.7007 30.064-51.8892 26.6211-53.0845C23.3804-54.2612 20.1397-54.2818 16.857-52.9961ZM38.1909-44.7944C42.7769-55.833 50.3262-63.6211 57.207-66.2378C60.8838-59.8213 61.6567-48.9673 58.0542-37.5196C56.3013-40.8799 53.1108-43.6255 49.4878-44.9707C45.8799-46.2974 41.6509-46.1983 38.1909-44.7944ZM62.3052-36.1958C65.5474-46.4429 65.5508-56.2021 63.1724-63.3628C76.3916-56.0679 81.5308-42.2505 79.6343-30.1807C77.9219-33.2105 75.4756-35.291 72.2197-36.5015C68.792-37.7305 65.5039-37.6987 62.3052-36.1958Z"/>
  </g>
  <g id="Thin-S" transform="matrix(1 0 0 1 810.568 696)">
   <path d="M8.94141-47.8125C8.51953-46.5879 9.03711-45.627 9.96485-45.2734C10.8047-44.9609 11.4551-45.3848 12.1426-45.877C16.2363-48.8105 19.9512-49.7363 23.9414-48.25C27.9668-46.7988 29.8672-43.9043 30.7129-39.3516C30.9082-38.2305 31.2559-37.5234 32.0684-37.2383C32.8731-36.9473 33.5391-37.2656 34.4024-37.9687C37.1836-40.2812 41.2676-41.1094 44.7539-40.5117L28.2969 4.584C27.873 5.709 28.4844 6.92971 29.6016 7.36721C30.7051 7.74222 31.961 7.16604 32.3848 6.02736L48.8067-39.0195C51.7852-37.2129 54.4316-33.9922 55.0606-30.4356C55.2832-29.3848 55.6035-28.6562 56.3731-28.3926C57.1856-28.0801 57.8867-28.4336 58.7852-29.1367C62.3535-32.0898 65.6484-33.0781 69.6738-31.627C73.6992-30.1621 75.9356-27.0781 77.1934-22.1816C77.4023-21.3633 77.6504-20.6426 78.4766-20.3437C79.4395-19.9902 80.4824-20.4199 80.8555-21.6094C86.1367-36.1914 82.0293-59.125 59.5039-68.5196L61.8516-74.9336C62.3028-76.2246 61.8242-77.3203 60.5957-77.8203C59.3809-78.2715 58.2637-77.668 57.7988-76.4258L55.4512-69.9981C32.1621-77.2969 14.2578-62.3867 8.94141-47.8125ZM13.5137-50.1133C19.5215-62.252 33.9903-72.2441 52.0957-67.5742C44.8301-63.916 37.5332-55.2715 32.7031-43.1739C31.4082-47.2383 28.8828-49.8672 25.0196-51.2227C21.2383-52.5996 17.4571-52.2598 13.5137-50.1133ZM35.4883-42.1719C40.7149-55.1524 48.8848-63.9414 56.4063-66.3379C60.6836-59.7012 61.3164-47.666 56.9531-34.3165C55.4004-38.1172 51.9297-41.5235 47.9063-42.9688C43.918-44.4356 39.0684-44.0762 35.4883-42.1719ZM59.7227-33.3731C63.7656-45.7422 63.709-57.043 60.5098-64.5039C77.3926-56.4082 82.0312-39.4278 78.8535-26.377C77.2012-30.5078 74.5547-33.209 70.7383-34.5996C66.9102-35.9688 63.3418-35.6367 59.7227-33.3731Z"/>
  </g>
  <g id="Ultralight-S" transform="matrix(1 0 0 1 514.446 696)">
   <path d="M8.90039-47.146C8.61181-46.2905 8.92432-45.6475 9.59572-45.376C10.2818-45.1147 10.7373-45.477 11.312-45.8564C15.6314-48.9336 19.4898-49.7876 23.4903-48.2808C27.5361-46.8193 29.5493-43.9351 30.4566-39.208C30.6519-38.1587 30.9585-37.6157 31.6377-37.3613C32.2783-37.1421 32.8111-37.3682 33.6128-38.02C36.5786-40.4658 41.042-41.2222 44.7334-40.4502L28.4609 4.11232C28.0986 5.05276 28.6177 6.01712 29.5195 6.38285C30.418 6.69633 31.4278 6.22269 31.7901 5.27883L48.0171-39.2349C51.252-37.4282 54.2573-34.0229 54.9273-30.2407C55.1294-29.2822 55.4292-28.6973 56.0244-28.4849C56.7036-28.2236 57.2818-28.4951 58.1289-29.147C61.8408-32.1924 65.228-33.0986 69.2739-31.6372C73.3198-30.1724 75.71-27.0576 77.0498-21.915C77.2485-21.271 77.3838-20.7246 78.0664-20.4668C78.7832-20.1953 79.4468-20.5225 79.6866-21.3325C84.9986-36.0376 80.6758-58.6533 58.3453-67.7403L60.8365-74.544C61.2056-75.5991 60.8296-76.459 59.8267-76.877C58.8272-77.2461 57.9253-76.7657 57.5527-75.7593L55.0615-68.9522C32.1006-76.3433 14.2578-61.8125 8.90039-47.146ZM11.8013-48.6368C17.6246-61.5957 32.9239-72.9926 52.7212-67.4307C45.0454-63.916 37.2153-54.687 32.0161-41.482C30.8135-45.9771 28.2779-48.8316 24.1992-50.2691C20.1412-51.7486 16.0831-51.2242 11.8013-48.6368ZM34.1041-40.8287C39.6587-54.8037 48.1465-64.1055 55.9961-66.3892C60.5811-59.6397 61.1421-46.9995 56.3892-32.6758C54.939-36.7022 51.3247-40.4468 47.0962-41.9434C42.9131-43.482 37.7457-42.9893 34.1041-40.8287ZM58.3999-31.9273C62.8531-45.3833 62.7657-57.4736 59.146-65.0884C77.9053-56.5825 82.2876-37.982 78.4536-24.4288C76.832-29.1236 74.083-32.1426 69.9795-33.6255C65.9463-35.0664 62.2344-34.5806 58.3999-31.9273Z"/>
  </g>
 </g>
</svg>
