<?xml version="1.0" encoding="UTF-8"?>
<!--Generator: Apple Native CoreSVG 175.5-->
<!DOCTYPE svg
PUBLIC "-//W3C//DTD SVG 1.1//EN"
       "http://www.w3.org/Graphics/SVG/1.1/DTD/svg11.dtd">
<svg version="1.1" xmlns="http://www.w3.org/2000/svg" xmlns:xlink="http://www.w3.org/1999/xlink" width="3300" height="2200">
 <!--glyph: "uni101590.medium", point size: 100.0, font version: "18.0d11e1", template writer version: "90"-->
 <g id="Notes">
  <rect height="2200" id="artboard" style="fill:white;opacity:1" width="3300" x="0" y="0"/>
  <line style="fill:none;stroke:black;opacity:1;stroke-width:0.5;" x1="263" x2="3036" y1="292" y2="292"/>
  <text style="stroke:none;fill:black;font-family:sans-serif;font-size:13;font-weight:bold;" transform="matrix(1 0 0 1 263 322)">Weight/Scale Variations</text>
  <text style="stroke:none;fill:black;font-family:sans-serif;font-size:13;text-anchor:middle;" transform="matrix(1 0 0 1 559.711 322)">Ultralight</text>
  <text style="stroke:none;fill:black;font-family:sans-serif;font-size:13;text-anchor:middle;" transform="matrix(1 0 0 1 856.422 322)">Thin</text>
  <text style="stroke:none;fill:black;font-family:sans-serif;font-size:13;text-anchor:middle;" transform="matrix(1 0 0 1 1153.13 322)">Light</text>
  <text style="stroke:none;fill:black;font-family:sans-serif;font-size:13;text-anchor:middle;" transform="matrix(1 0 0 1 1449.84 322)">Regular</text>
  <text style="stroke:none;fill:black;font-family:sans-serif;font-size:13;text-anchor:middle;" transform="matrix(1 0 0 1 1746.56 322)">Medium</text>
  <text style="stroke:none;fill:black;font-family:sans-serif;font-size:13;text-anchor:middle;" transform="matrix(1 0 0 1 2043.27 322)">Semibold</text>
  <text style="stroke:none;fill:black;font-family:sans-serif;font-size:13;text-anchor:middle;" transform="matrix(1 0 0 1 2339.98 322)">Bold</text>
  <text style="stroke:none;fill:black;font-family:sans-serif;font-size:13;text-anchor:middle;" transform="matrix(1 0 0 1 2636.69 322)">Heavy</text>
  <text style="stroke:none;fill:black;font-family:sans-serif;font-size:13;text-anchor:middle;" transform="matrix(1 0 0 1 2933.4 322)">Black</text>
  <line style="fill:none;stroke:black;opacity:1;stroke-width:0.5;" x1="263" x2="3036" y1="1903" y2="1903"/>
  <g transform="matrix(1 0 0 1 263 1933)">
   <path d="M9.24805 0.830078C13.5547 0.830078 17.1387-2.74414 17.1387-7.05078C17.1387-11.3574 13.5449-14.9316 9.23828-14.9316C4.94141-14.9316 1.36719-11.3574 1.36719-7.05078C1.36719-2.74414 4.95117 0.830078 9.24805 0.830078ZM9.24805-0.654297C5.70312-0.654297 2.87109-3.49609 2.87109-7.05078C2.87109-10.6055 5.69336-13.4473 9.23828-13.4473C12.793-13.4473 15.6445-10.6055 15.6445-7.05078C15.6445-3.49609 12.8027-0.654297 9.24805-0.654297ZM5.6543-7.05078C5.6543-6.62109 5.95703-6.32812 6.40625-6.32812L8.50586-6.32812L8.50586-4.20898C8.50586-3.76953 8.79883-3.4668 9.22852-3.4668C9.67773-3.4668 9.9707-3.76953 9.9707-4.20898L9.9707-6.32812L12.0898-6.32812C12.5293-6.32812 12.832-6.62109 12.832-7.05078C12.832-7.49023 12.5293-7.79297 12.0898-7.79297L9.9707-7.79297L9.9707-9.90234C9.9707-10.3516 9.67773-10.6543 9.22852-10.6543C8.79883-10.6543 8.50586-10.3516 8.50586-9.90234L8.50586-7.79297L6.40625-7.79297C5.95703-7.79297 5.6543-7.49023 5.6543-7.05078Z"/>
  </g>
  <g transform="matrix(1 0 0 1 281.867 1933)">
   <path d="M11.709 2.91016C17.1582 2.91016 21.6699-1.61133 21.6699-7.05078C21.6699-12.5 17.1484-17.0117 11.6992-17.0117C6.25977-17.0117 1.74805-12.5 1.74805-7.05078C1.74805-1.61133 6.26953 2.91016 11.709 2.91016ZM11.709 1.25C7.09961 1.25 3.41797-2.44141 3.41797-7.05078C3.41797-11.6602 7.08984-15.3516 11.6992-15.3516C16.3086-15.3516 20.0098-11.6602 20.0098-7.05078C20.0098-2.44141 16.3184 1.25 11.709 1.25ZM7.17773-7.05078C7.17773-6.57227 7.50977-6.25 8.00781-6.25L10.8789-6.25L10.8789-3.36914C10.8789-2.88086 11.2109-2.53906 11.6895-2.53906C12.1777-2.53906 12.5195-2.87109 12.5195-3.36914L12.5195-6.25L15.4004-6.25C15.8887-6.25 16.2305-6.57227 16.2305-7.05078C16.2305-7.53906 15.8887-7.88086 15.4004-7.88086L12.5195-7.88086L12.5195-10.752C12.5195-11.25 12.1777-11.5918 11.6895-11.5918C11.2109-11.5918 10.8789-11.25 10.8789-10.752L10.8789-7.88086L8.00781-7.88086C7.50977-7.88086 7.17773-7.53906 7.17773-7.05078Z"/>
  </g>
  <g transform="matrix(1 0 0 1 305.646 1933)">
   <path d="M14.9707 5.66406C21.9336 5.66406 27.6953-0.0976562 27.6953-7.05078C27.6953-14.0137 21.9238-19.7754 14.9609-19.7754C8.00781-19.7754 2.25586-14.0137 2.25586-7.05078C2.25586-0.0976562 8.01758 5.66406 14.9707 5.66406ZM14.9707 3.84766C8.93555 3.84766 4.08203-1.01562 4.08203-7.05078C4.08203-13.0957 8.92578-17.9492 14.9609-17.9492C21.0059-17.9492 25.8691-13.0957 25.8691-7.05078C25.8691-1.01562 21.0156 3.84766 14.9707 3.84766ZM9.19922-7.05078C9.19922-6.5332 9.57031-6.17188 10.1172-6.17188L14.0625-6.17188L14.0625-2.2168C14.0625-1.67969 14.4336-1.29883 14.9512-1.29883C15.4883-1.29883 15.8594-1.66992 15.8594-2.2168L15.8594-6.17188L19.8145-6.17188C20.3516-6.17188 20.7324-6.5332 20.7324-7.05078C20.7324-7.59766 20.3613-7.96875 19.8145-7.96875L15.8594-7.96875L15.8594-11.9141C15.8594-12.4609 15.4883-12.8418 14.9512-12.8418C14.4336-12.8418 14.0625-12.4609 14.0625-11.9141L14.0625-7.96875L10.1172-7.96875C9.57031-7.96875 9.19922-7.59766 9.19922-7.05078Z"/>
  </g>
  <text style="stroke:none;fill:black;font-family:sans-serif;font-size:13;font-weight:bold;" transform="matrix(1 0 0 1 263 1953)">Design Variations</text>
  <text style="stroke:none;fill:black;font-family:sans-serif;font-size:13;" transform="matrix(1 0 0 1 263 1971)">Symbols are supported in up to nine weights and three scales.</text>
  <text style="stroke:none;fill:black;font-family:sans-serif;font-size:13;" transform="matrix(1 0 0 1 263 1989)">For optimal layout with text and other symbols, vertically align</text>
  <text style="stroke:none;fill:black;font-family:sans-serif;font-size:13;" transform="matrix(1 0 0 1 263 2007)">symbols with the adjacent text.</text>
  <line style="fill:none;stroke:#00AEEF;stroke-width:0.5;opacity:1.0;" x1="776" x2="776" y1="1919" y2="1933"/>
  <g transform="matrix(1 0 0 1 776 1933)">
   <path d="M3.31055 0.15625C3.82812 0.15625 4.08203-0.0390625 4.26758-0.585938L5.52734-4.0332L11.2891-4.0332L12.5488-0.585938C12.7344-0.0390625 12.9883 0.15625 13.4961 0.15625C14.0137 0.15625 14.3457-0.15625 14.3457-0.644531C14.3457-0.810547 14.3164-0.966797 14.2383-1.17188L9.6582-13.3691C9.43359-13.9648 9.0332-14.2676 8.4082-14.2676C7.80273-14.2676 7.39258-13.9746 7.17773-13.3789L2.59766-1.16211C2.51953-0.957031 2.49023-0.800781 2.49023-0.634766C2.49023-0.146484 2.80273 0.15625 3.31055 0.15625ZM6.00586-5.51758L8.37891-12.0898L8.42773-12.0898L10.8008-5.51758Z"/>
  </g>
  <line style="fill:none;stroke:#00AEEF;stroke-width:0.5;opacity:1.0;" x1="793.197" x2="793.197" y1="1919" y2="1933"/>
  <text style="stroke:none;fill:black;font-family:sans-serif;font-size:13;font-weight:bold;" transform="matrix(1 0 0 1 776 1953)">Margins</text>
  <text style="stroke:none;fill:black;font-family:sans-serif;font-size:13;" transform="matrix(1 0 0 1 776 1971)">Leading and trailing margins on the left and right side of each symbol</text>
  <text style="stroke:none;fill:black;font-family:sans-serif;font-size:13;" transform="matrix(1 0 0 1 776 1989)">can be adjusted by modifying the x-location of the margin guidelines.</text>
  <text style="stroke:none;fill:black;font-family:sans-serif;font-size:13;" transform="matrix(1 0 0 1 776 2007)">Modifications are automatically applied proportionally to all</text>
  <text style="stroke:none;fill:black;font-family:sans-serif;font-size:13;" transform="matrix(1 0 0 1 776 2025)">scales and weights.</text>
  <g transform="matrix(1 0 0 1 1289 1933)">
   <path d="M2.8418 1.86523L4.54102 3.57422C5.40039 4.44336 6.38672 4.38477 7.31445 3.35938L18.0078-8.42773L17.041-9.4043L6.42578 2.27539C6.07422 2.67578 5.74219 2.77344 5.27344 2.30469L4.10156 1.14258C3.63281 0.683594 3.74023 0.341797 4.14062-0.0195312L15.6152-10.8203L14.6387-11.7871L3.04688-0.898438C2.06055 0.0195312 1.98242 0.996094 2.8418 1.86523ZM9.25781-16.3281C8.83789-15.918 8.80859-15.3418 9.04297-14.9512C9.27734-14.5898 9.73633-14.3555 10.3809-14.5215C11.8457-14.8633 13.3691-14.9219 14.7949-13.9844L14.209-12.5293C13.8672-11.6992 14.043-11.1133 14.5801-10.5664L16.875-8.25195C17.3633-7.76367 17.7734-7.74414 18.3398-7.8418L19.4043-8.03711L20.0684-7.36328L20.0293-6.80664C19.9902-6.30859 20.1172-5.92773 20.6055-5.44922L21.3672-4.70703C21.8457-4.22852 22.4609-4.19922 22.9297-4.66797L25.8398-7.58789C26.3086-8.05664 26.2891-8.65234 25.8105-9.13086L25.0391-9.89258C24.5605-10.3711 24.1895-10.5273 23.7109-10.4883L23.1348-10.4395L22.4902-11.0742L22.7344-12.1973C22.8613-12.7637 22.7051-13.2031 22.1191-13.7891L19.9219-15.9766C16.582-19.2969 12.1484-19.2188 9.25781-16.3281ZM10.752-15.957C13.1836-17.7344 16.4746-17.4316 18.7012-15.2051L21.1328-12.793C21.3672-12.5586 21.4062-12.373 21.3379-12.0312L21.0156-10.5469L22.5195-9.0625L23.5059-9.12109C23.7598-9.13086 23.8379-9.11133 24.0332-8.91602L24.6094-8.33984L22.168-5.89844L21.5918-6.47461C21.3965-6.66992 21.3672-6.74805 21.377-7.01172L21.4453-7.98828L19.9512-9.47266L18.4277-9.21875C18.1055-9.15039 17.959-9.17969 17.7148-9.41406L15.7129-11.416C15.459-11.6504 15.4297-11.8164 15.5859-12.1875L16.4648-14.2773C14.9023-15.7324 12.8711-16.3574 10.8398-15.7617C10.6836-15.7227 10.625-15.8496 10.752-15.957Z"/>
  </g>
  <text style="stroke:none;fill:black;font-family:sans-serif;font-size:13;font-weight:bold;" transform="matrix(1 0 0 1 1289 1953)">Exporting</text>
  <text style="stroke:none;fill:black;font-family:sans-serif;font-size:13;" transform="matrix(1 0 0 1 1289 1971)">Symbols should be outlined when exporting to ensure the</text>
  <text style="stroke:none;fill:black;font-family:sans-serif;font-size:13;" transform="matrix(1 0 0 1 1289 1989)">design is preserved when submitting to Xcode.</text>
  <text id="template-version" style="stroke:none;fill:black;font-family:sans-serif;font-size:13;text-anchor:end;" transform="matrix(1 0 0 1 3036 1933)">Template v.2.0</text>
  <text style="stroke:none;fill:black;font-family:sans-serif;font-size:13;text-anchor:end;" transform="matrix(1 0 0 1 3036 1951)">Requires Xcode 12 or greater</text>
  <text id="descriptive-name" style="stroke:none;fill:black;font-family:sans-serif;font-size:13;text-anchor:end;" transform="matrix(1 0 0 1 3036 1969)">Generated from fish</text>
  <text style="stroke:none;fill:black;font-family:sans-serif;font-size:13;text-anchor:end;" transform="matrix(1 0 0 1 3036 1987)">Typeset at 100 points</text>
  <text style="stroke:none;fill:black;font-family:sans-serif;font-size:13;" transform="matrix(1 0 0 1 263 726)">Small</text>
  <text style="stroke:none;fill:black;font-family:sans-serif;font-size:13;" transform="matrix(1 0 0 1 263 1156)">Medium</text>
  <text style="stroke:none;fill:black;font-family:sans-serif;font-size:13;" transform="matrix(1 0 0 1 263 1586)">Large</text>
 </g>
 <g id="Guides">
  <g id="H-reference" style="fill:#27AAE1;stroke:none;" transform="matrix(1 0 0 1 339 696)">
   <path d="M0.993654 0L3.63775 0L29.3281-67.1323L30.0303-67.1323L30.0303-70.459L28.1226-70.459ZM11.6885-24.4799L46.9815-24.4799L46.2315-26.7285L12.4385-26.7285ZM55.1196 0L57.7637 0L30.6382-70.459L29.4326-70.459L29.4326-67.1323Z"/>
  </g>
  <line id="Baseline-S" style="fill:none;stroke:#27AAE1;opacity:1;stroke-width:0.5;" x1="263" x2="3036" y1="696" y2="696"/>
  <line id="Capline-S" style="fill:none;stroke:#27AAE1;opacity:1;stroke-width:0.5;" x1="263" x2="3036" y1="625.541" y2="625.541"/>
  <g id="H-reference" style="fill:#27AAE1;stroke:none;" transform="matrix(1 0 0 1 339 1126)">
   <path d="M0.993654 0L3.63775 0L29.3281-67.1323L30.0303-67.1323L30.0303-70.459L28.1226-70.459ZM11.6885-24.4799L46.9815-24.4799L46.2315-26.7285L12.4385-26.7285ZM55.1196 0L57.7637 0L30.6382-70.459L29.4326-70.459L29.4326-67.1323Z"/>
  </g>
  <line id="Baseline-M" style="fill:none;stroke:#27AAE1;opacity:1;stroke-width:0.5;" x1="263" x2="3036" y1="1126" y2="1126"/>
  <line id="Capline-M" style="fill:none;stroke:#27AAE1;opacity:1;stroke-width:0.5;" x1="263" x2="3036" y1="1055.54" y2="1055.54"/>
  <g id="H-reference" style="fill:#27AAE1;stroke:none;" transform="matrix(1 0 0 1 339 1556)">
   <path d="M0.993654 0L3.63775 0L29.3281-67.1323L30.0303-67.1323L30.0303-70.459L28.1226-70.459ZM11.6885-24.4799L46.9815-24.4799L46.2315-26.7285L12.4385-26.7285ZM55.1196 0L57.7637 0L30.6382-70.459L29.4326-70.459L29.4326-67.1323Z"/>
  </g>
  <line id="Baseline-L" style="fill:none;stroke:#27AAE1;opacity:1;stroke-width:0.5;" x1="263" x2="3036" y1="1556" y2="1556"/>
  <line id="Capline-L" style="fill:none;stroke:#27AAE1;opacity:1;stroke-width:0.5;" x1="263" x2="3036" y1="1485.54" y2="1485.54"/>
  <line id="left-margin" style="fill:none;stroke:#00AEEF;stroke-width:0.5;opacity:1.0;" x1="1368.56" x2="1368.56" y1="1030.79" y2="1150.12"/>
  <line id="right-margin" style="fill:none;stroke:#00AEEF;stroke-width:0.5;opacity:1.0;" x1="1531.13" x2="1531.13" y1="1030.79" y2="1150.12"/>
 </g>
 <g id="Symbols">
  <g id="Black-L" transform="matrix(1 0 0 1 2816.76 1556)">
   <path d="M98.6414-69.3611L114.508-72.1429C113.307-79.8815 112.136-86.1617 107.835-93.2363C107.412-93.8598 107.512-94.4636 108.27-94.6452C127.465-99.2347 150.802-88.945 154.071-68.3044L170.02-70.9907C164.654-105.097 121.477-121.603 91.7673-105.197C86.8766-102.545 85.5611-96.9489 89.5176-91.7449C96.5465-82.417 97.1431-79.0237 98.6414-69.3611ZM132.457 20.6849C165.014 20.6849 217.186-0.992332 217.187-31.9009C217.186-62.847 165.014-84.4682 132.457-84.4682C110.664-84.4682 87.7884-77.0016 69.063-60.1299C56.9621-72.775 42.613-79.9991 26.2415-80.2988C21.1147-80.378 16.7977-76.8504 16.2448-71.5301C14.8997-57.4175 20.7155-42.0897 29.9234-31.9009C20.7155-21.7728 14.8997-6.4415 16.2448 7.74913C16.7977 12.9903 21.1147 16.5399 26.2415 16.4607C42.613 16.2182 56.9621 8.97323 69.063-3.72908C87.7884 13.2207 110.664 20.6849 132.457 20.6849ZM132.457 2.72851C111.33 2.72851 91.4764-4.5993 74.8803-23.2547C71.1531-27.4544 65.6723-27.3168 62.0035-22.8198C52.6281-11.2843 45.0309-5.70189 35.9154-2.91081C35.1335-2.67314 34.6268-3.17978 34.8061-3.9825C36.2202-11.0937 41.4103-19.318 48.3243-24.9957C54.104-29.9824 53.4239-34.5578 48.3231-38.8448C42.1696-43.9617 37.0379-51.0531 34.8061-59.8556C34.5684-60.6595 35.1335-61.187 35.9154-60.9493C45.7318-57.9246 53.5626-51.3881 62.0023-41.0404C65.5919-36.5214 71.1519-36.4422 74.8791-40.5471C91.4776-59.1816 111.33-66.5314 132.457-66.5314C160.717-66.5314 199.488-48.2469 199.489-31.9009C199.488-15.5549 160.717 2.72851 132.457 2.72851ZM175.452-27.4741C179.64-27.4741 183.131-30.9638 183.131-35.1529C183.131-39.342 179.64-42.8316 175.452-42.8316C171.263-42.8316 167.772-39.342 167.772-35.1529C167.772-30.9638 171.263-27.4741 175.452-27.4741ZM107.965 6.55447L104.71 33.1426C103.701 41.2545 109.276 47.4291 118.771 45.8676C139.002 42.7733 162.62 25.9835 171.665 8.08173L149.741 10.7079C141.682 17.1786 134.15 23.3197 125.024 26.5741C124.177 26.8534 123.534 26.5538 123.655 25.5417L125.228 8.89536Z"/>
  </g>
  <g id="Heavy-L" transform="matrix(1 0 0 1 2523.05 1556)">
   <path d="M96.372-69.0802L110.491-71.6326C109.336-79.1015 108.039-85.1667 103.639-92.2325C103.177-92.9038 103.282-93.5506 104.033-93.7416C123.442-98.9722 147.442-88.8187 151.323-68.1438L165.628-70.3832C159.912-103.185 118.1-118.967 89.275-103.049C84.8305-100.642 83.692-95.6162 87.2757-90.8893C94.1408-81.8074 94.9426-78.1808 96.372-69.0802ZM129.227 18.583C160.924 18.583 211.186-2.42134 211.191-32.0548C211.186-61.7026 160.924-82.6736 129.227-82.6736C107.733-82.6736 85.3435-75.2798 67.0555-58.5227C55.2193-71.1442 41.2425-78.2911 25.1991-78.577C20.5648-78.6518 16.7338-75.5285 16.2448-70.7414C14.9135-56.8891 20.7564-41.8564 29.9499-32.0548C20.7564-22.309 14.9135-7.25946 16.2448 6.66205C16.7338 11.3743 20.5648 14.5334 25.1991 14.4586C41.2425 14.2117 55.2193 7.0346 67.0555-5.62582C85.3435 11.2004 107.733 18.583 129.227 18.583ZM129.227 2.61984C108.294 2.61984 88.5985-4.64895 72.2038-23.0539C68.8996-26.7667 64.0751-26.6472 60.8155-22.6598C51.4565-11.1148 43.518-5.27445 33.9077-2.71891C33.0867-2.49449 32.5046-3.0766 32.6844-3.92776C33.9748-11.7316 39.3111-20.2241 46.3521-25.9185C51.4859-30.3277 50.9806-34.3317 46.3464-38.2111C39.8912-43.5007 34.5995-51.1039 32.6844-60.1906C32.46-61.0474 33.0867-61.6597 33.9077-61.4353C44.0535-58.7012 52.1705-52.1223 60.8099-41.4943C63.9947-37.4712 68.894-37.3963 72.1982-41.0556C88.6041-59.4304 108.294-66.735 129.227-66.735C157.147-66.735 195.477-48.6932 195.483-32.0548C195.477-15.4164 157.147 2.61984 129.227 2.61984ZM171.235-27.8035C175.256-27.8035 178.612-31.1536 178.612-35.1805C178.612-39.2073 175.256-42.5574 171.235-42.5574C167.208-42.5574 163.853-39.2073 163.853-35.1805C163.853-31.1536 167.208-27.8035 171.235-27.8035ZM105.919 6.15766L102.806 31.526C101.893 38.8977 106.918 44.3999 115.541 42.9978C134.751 40.0452 157.007 24.4681 166.087 7.61479L146.46 9.96356C138.434 16.5712 130.584 22.7525 121.141 25.8894C120.219 26.1742 119.523 25.8884 119.658 24.7297L121.234 8.2879Z"/>
  </g>
  <g id="Bold-L" transform="matrix(1 0 0 1 2230.11 1556)">
   <path d="M93.5522-68.6375L105.46-70.9279C104.352-78.0738 102.878-83.885 98.3475-90.9355C97.8623-91.631 97.9675-92.3018 98.6878-92.5006C118.358-98.6196 143.211-88.6426 147.905-67.8918L160.151-69.511C153.996-100.707 113.898-115.582 86.1712-100.271C82.2874-98.1715 81.3791-93.8524 84.4868-89.7395C91.1446-80.9649 92.1999-77.0613 93.5522-68.6375ZM125.201 15.9186C155.868 15.9186 203.636-4.22599 203.649-32.2617C203.636-60.2887 155.868-80.4305 125.201-80.4305C104.039-80.4305 82.2713-73.1288 64.5287-56.5028C53.0154-69.1084 39.522-76.1556 23.8858-76.4261C19.8587-76.4932 16.6569-73.8918 16.2448-69.7655C14.9289-56.2285 20.81-41.5794 29.9956-32.2617C20.81-22.9997 14.9289-8.31096 16.2448 5.28004C16.6569 9.33911 19.8587 11.9918 23.8858 11.9246C39.522 11.6701 53.0154 4.58493 64.5287-8.03666C82.2713 8.64336 104.039 15.9186 125.201 15.9186ZM125.201 2.47419C104.469 2.47419 84.9885-4.71788 68.8323-22.808C66.0655-25.9063 62.0555-25.8099 59.3179-22.4676C49.9372-10.8477 41.5686-4.72937 31.3139-2.48817C30.484-2.2866 29.8469-2.9237 30.0192-3.79157C31.0964-12.4559 36.6095-21.3609 43.8862-27.1006C48.1986-30.7729 47.8861-34.0923 43.873-37.4273C36.9891-42.9394 31.5052-51.2251 30.0192-60.7099C29.8177-61.591 30.484-62.2661 31.3139-62.0645C41.919-59.7065 50.4045-53.0962 59.3047-42.0851C61.9751-38.6915 66.0523-38.6243 68.819-41.7155C85.0017-59.7676 104.469-67.0109 125.201-67.0109C152.736-67.0109 190.431-49.3209 190.444-32.2617C190.431-15.2025 152.736 2.47419 125.201 2.47419ZM165.95-28.2629C169.734-28.2629 172.899-31.4141 172.899-35.2113C172.899-39.0085 169.734-42.1597 165.95-42.1597C162.153-42.1597 158.989-39.0085 158.989-35.2113C158.989-31.4141 162.153-28.2629 165.95-28.2629ZM103.369 5.53175L100.425 29.4311C99.6343 35.8436 103.96 40.4787 111.448 39.2763C129.45 36.4929 150.008 22.4143 159.097 6.85957L142.38 8.85518C134.385 15.6989 126.047 21.9414 116.182 24.9174C115.212 25.195 114.492 24.9245 114.635 23.6636L116.233 7.41565Z"/>
  </g>
  <g id="Semibold-L" transform="matrix(1 0 0 1 1936 1556)">
   <path d="M91.6083-68.3322L101.991-70.4421C100.915-77.3653 99.3201-83.0015 94.6996-90.0414C94.1981-90.7536 94.3034-91.4409 95.003-91.6451C114.854-98.3765 140.294-88.5211 145.548-67.7182L156.375-68.9096C149.918-98.9983 111.001-113.248 84.0315-98.3561C80.5342-96.4682 79.7846-92.6365 82.5641-88.9468C89.079-80.3841 90.3092-76.2895 91.6083-68.3322ZM122.426 14.0817C152.382 14.0817 198.431-5.47011 198.45-32.4044C198.431-59.3139 152.382-78.8842 122.426-78.8842C101.492-78.8842 80.1533-71.646 62.7868-55.1102C51.4961-67.705 38.3359-74.6834 22.9805-74.9432C19.3719-75.0051 16.6038-72.7634 16.2448-69.0928C14.9395-55.773 20.8471-41.3885 30.0271-32.4044C20.8471-23.4759 14.9395-9.03587 16.2448 4.3273C16.6038 7.93605 19.3719 10.2396 22.9805 10.1777C38.3359 9.91792 51.4961 2.89614 62.7868-9.69869C80.1533 6.88054 101.492 14.0817 122.426 14.0817ZM122.426 2.37378C101.833 2.37378 82.4997-4.76539 66.508-22.6384C64.1117-25.3132 60.6632-25.2327 58.2855-22.335C48.8898-10.6635 40.2247-4.3536 29.5257-2.32911C28.6896-2.14329 28.0146-2.81829 28.1819-3.69769C29.112-12.9553 34.747-22.1446 42.1863-27.9155C45.9323-31.0797 45.7528-33.9272 42.1678-36.887C34.9885-42.5525 29.372-51.3086 28.1819-61.0679C27.9961-61.9657 28.6896-62.6841 29.5257-62.4983C40.4476-60.3995 49.187-53.7676 58.2671-42.4924C60.5828-39.5329 64.0933-39.4709 66.4895-42.1704C82.5182-60.0001 101.833-67.2011 122.426-67.2011C149.695-67.2011 186.952-49.7537 186.971-32.4044C186.952-15.0551 149.695 2.37378 122.426 2.37378ZM162.307-28.5797C165.928-28.5797 168.96-31.5936 168.96-35.2326C168.96-38.8715 165.928-41.8854 162.307-41.8854C158.668-41.8854 155.636-38.8715 155.636-35.2326C155.636-31.5936 158.668-28.5797 162.307-28.5797ZM101.611 5.10026L98.7831 27.9869C98.0773 33.7382 101.922 37.7754 108.627 36.7107C125.796 34.044 145.183 20.9984 154.278 6.33893L139.568 8.09107C131.594 15.0976 122.919 21.3822 112.763 24.2473C111.76 24.5199 111.023 24.2601 111.172 22.9285L112.786 6.81433Z"/>
  </g>
  <g id="Medium-L" transform="matrix(1 0 0 1 1641.26 1556)">
   <path d="M90.1344-68.1008L99.3613-70.0738C98.3093-76.8281 96.6223-82.3315 91.9337-89.3635C91.4197-90.0883 91.5251-90.7881 92.209-90.9964C112.196-98.1922 138.081-88.4291 143.76-67.5865L153.512-68.4537C146.826-97.7027 108.804-111.479 82.409-96.904C79.2048-95.1767 78.5755-91.7145 81.1063-88.3458C87.5128-79.9437 88.8755-75.7043 90.1344-68.1008ZM120.322 12.689C149.739 12.689 194.485-6.41345 194.507-32.5126C194.485-58.5748 149.739-77.7116 120.322-77.7116C99.561-77.7116 78.5474-70.5216 61.466-54.0543C50.344-66.6408 37.4366-73.5671 22.294-73.8189C19.0028-73.8768 16.5636-71.9079 16.2448-68.5826C14.9476-55.4277 20.8751-41.2437 30.051-32.5126C20.8751-23.8369 14.9476-9.58552 16.2448 3.60488C16.5636 6.8722 19.0028 8.91102 22.294 8.85306C37.4366 8.58934 50.344 1.61562 61.466-10.9589C78.5474 5.54389 99.561 12.689 120.322 12.689ZM120.322 2.29764C99.8334 2.29764 80.6127-4.80142 64.7456-22.5098C62.6303-24.8635 59.6075-24.795 57.5027-22.2345C48.0957-10.5238 39.2057-4.06868 28.1698-2.20849C27.3291-2.03462 26.6254-2.73837 26.7887-3.6265C27.6073-13.3339 33.3348-22.7388 40.8973-28.5334C44.2139-31.3124 44.1352-33.802 40.8749-36.4773C33.4715-42.2592 27.7545-51.3719 26.7887-61.3393C26.6149-62.2499 27.3291-63.0011 28.1698-62.8272C39.3319-60.925 48.2639-54.2766 57.4803-42.8012C59.5271-40.1708 62.6079-40.1128 64.7231-42.5154C80.6351-60.1763 99.8334-67.3453 120.322-67.3453C147.389-67.3453 184.315-50.0819 184.337-32.5126C184.315-14.9433 147.389 2.29764 120.322 2.29764ZM159.545-28.8198C163.041-28.8198 165.974-31.7298 165.974-35.2487C165.974-38.7676 163.041-41.6775 159.545-41.6775C156.026-41.6775 153.094-38.7676 153.094-35.2487C153.094-31.7298 156.026-28.8198 159.545-28.8198ZM100.277 4.77308L97.5383 26.8919C96.8967 32.1418 100.376 35.7257 106.487 34.7653C123.025 32.1871 141.525 19.9249 150.624 5.94416L137.435 7.51169C129.478 14.6416 120.547 20.9582 110.171 23.7392C109.143 24.008 108.393 23.7562 108.546 22.3712L110.172 6.35839Z"/>
  </g>
  <g id="Regular-L" transform="matrix(1 0 0 1 1347.12 1556)">
   <path d="M88.2118-67.799L95.931-69.5933C94.9106-76.1273 93.1035-81.4576 88.326-88.4792C87.7958-89.2205 87.9013-89.9366 88.5647-90.1502C108.73-97.9517 135.196-88.309 141.429-67.4147L149.777-67.859C142.793-96.0128 105.939-109.171 80.2928-95.0099C77.4709-93.4921 76.9985-90.5119 79.2048-87.5619C85.4699-79.3692 87.0055-74.941 88.2118-67.799ZM117.577 10.8723C146.292 10.8723 189.337-7.64389 189.365-32.6537C189.337-57.6107 146.292-76.1823 117.577-76.1823C97.0423-76.1823 76.4527-69.0551 59.7432-52.6771C48.8414-65.2528 36.2635-72.111 21.3986-72.3523C18.5213-72.4051 16.5112-70.792 16.2448-67.9172C14.9581-54.9773 20.9117-41.0548 30.0822-32.6537C20.9117-24.3079 14.9581-10.3025 16.2448 2.66261C16.5112 5.48456 18.5213 7.17808 21.3986 7.12532C36.2635 6.8564 48.8414-0.0546094 59.7432-12.6027C76.4527 3.80045 97.0423 10.8723 117.577 10.8723ZM117.577 2.19833C97.2257 2.19833 78.1513-4.84842 62.4468-22.3421C60.698-24.2769 58.2305-24.2241 56.4817-22.1034C47.0598-10.3417 37.8766-3.69704 26.4013-2.05117C25.5545-1.89288 24.8133-2.63412 24.9716-3.53365C25.6447-13.8278 31.4928-23.5139 39.2161-29.3394C41.9725-31.6159 42.0253-33.6387 39.1884-35.9429C31.4928-41.8765 25.6447-51.4545 24.9716-61.6933C24.8133-62.6205 25.5545-63.4145 26.4013-63.2562C37.8766-61.6104 47.0598-54.9406 56.454-43.204C58.1501-41.0029 60.6704-40.9501 62.4192-42.9653C78.1789-60.4062 97.2257-67.5334 117.577-67.5334C144.382-67.5334 180.874-50.5099 180.902-32.6537C180.874-14.7975 144.382 2.19833 117.577 2.19833ZM155.942-29.1331C159.276-29.1331 162.078-31.9074 162.078-35.2697C162.078-38.632 159.276-41.4063 155.942-41.4063C152.579-41.4063 149.777-38.632 149.777-35.2697C149.777-31.9074 152.579-29.1331 155.942-29.1331ZM98.5383 4.34632L95.9147 25.4636C95.3568 30.0595 98.3596 33.0521 103.697 32.2279C119.411 29.7651 136.753 18.5245 145.858 5.42925L134.654 6.75598C126.717 14.0469 117.453 20.4052 106.79 23.0765C105.729 23.3403 104.963 23.0991 105.121 21.6443L106.763 5.76368Z"/>
  </g>
  <g id="Light-L" transform="matrix(1 0 0 1 1053.39 1556)">
   <path d="M86.2079-66.8829L92.0948-68.6391C91.0363-75.0204 88.9811-80.2552 84.07-87.2387C83.6734-87.77 83.7407-88.3144 84.2514-88.5089C104.569-97.5319 131.818-88.0609 138.967-66.8994L145.75-66.4848C138.441-93.589 102.904-106.06 78.0407-92.338C75.6578-91.0492 75.4145-88.5652 77.2008-86.1877C83.2942-78.2241 85.0016-73.6814 86.2079-66.8829ZM114.638 8.63932C142.856 8.63932 183.364-9.11346 183.41-32.9018C183.364-56.6565 142.856-74.5027 114.638-74.5027C94.0841-74.5027 74.0479-67.4519 57.7392-51.093C47.0283-63.7451 34.9275-70.5079 20.3489-70.7491C17.8724-70.7828 16.473-69.6659 16.2448-67.2493C14.9581-54.4811 20.969-40.9403 30.1967-32.9018C20.969-24.9568 14.9581-11.2758 16.2448 1.47932C16.473 3.86231 17.8724 5.05962 20.3489 5.02594C34.9275 4.73794 47.0283-2.05856 57.7392-14.6639C74.0479 1.68198 94.0841 8.63932 114.638 8.63932ZM114.638 2.02656C94.1721 2.02656 75.3648-4.94384 59.7558-22.1894C58.465-23.628 56.5701-23.5943 55.2793-22.008C45.5711-9.78821 36.0444-3.2199 23.9202-1.93666C23.3215-1.83563 22.7902-2.36693 22.8913-2.99926C23.03-13.9041 28.9736-24.3918 37.3648-30.4082C39.4151-32.0358 39.4488-33.7342 37.3181-35.4085C28.9736-41.552 23.03-51.9126 22.8913-62.7239C22.7902-63.403 23.3215-63.968 23.9202-63.867C36.0444-62.5837 45.5711-56.0285 55.2325-43.7957C56.4897-42.1289 58.4183-42.0952 59.7091-43.6142C75.4116-60.8261 94.1721-67.8769 114.638-67.8769C141.405-67.8769 176.886-51.426 176.932-32.9018C176.886-14.3777 141.405 2.02656 114.638 2.02656ZM151.896-29.782C154.868-29.782 157.383-32.2509 157.383-35.2697C157.383-38.2885 154.868-40.7574 151.896-40.7574C148.877-40.7574 146.361-38.2885 146.361-35.2697C146.361-32.2509 148.877-29.782 151.896-29.782ZM96.668 3.04853L94.1207 23.4215C93.6773 27.0822 96.0885 29.2541 100.281 28.5826C115.518 26.1961 131.619 15.9671 140.514 3.76883L131.734 4.79019C123.759 12.6728 113.541 19.1456 102.4 21.6069C101.607 21.7753 101.089 21.5341 101.19 20.5182L102.965 4.38954Z"/>
  </g>
  <g id="Thin-L" transform="matrix(1 0 0 1 760.613 1556)">
   <path d="M83.5575-65.6713L87.0212-67.377C85.9122-73.5564 83.5289-78.665 78.441-85.598C78.2211-85.8516 78.238-86.1688 78.5468-86.3381C99.0668-96.9765 127.35-87.7327 135.711-66.2179L140.424-64.6674C132.686-90.3833 98.8907-101.946 75.0622-88.8041C73.2598-87.8183 73.3194-85.9905 74.5504-84.3703C80.4166-76.7096 82.3512-72.0155 83.5575-65.6713ZM110.751 5.68603C138.313 5.68603 175.463-11.0571 175.535-33.23C175.463-55.3944 138.313-72.2815 110.751-72.2815C90.1716-72.2815 70.8674-65.3316 55.0888-48.9979C44.6303-61.751 33.1606-68.3876 18.9606-68.6288C17.0142-68.6373 16.4225-68.1767 16.2448-66.3658C14.9581-53.8248 21.0447-40.7889 30.3481-33.23C21.0447-25.815 14.9581-12.5631 16.2448-0.0856741C16.4225 1.71676 17.0142 2.25778 18.9606 2.24934C33.1606 1.9361 44.6303-4.70895 55.0888-17.39C70.8674-1.11986 90.1716 5.68603 110.751 5.68603ZM110.751 1.79939C90.1334 1.79939 71.6795-5.07005 56.1967-21.9875C55.5117-22.7698 54.374-22.7613 53.689-21.8818C43.6023-9.0562 33.6212-2.58886 20.6387-1.78521C20.3682-1.7599 20.1146-2.01354 20.1399-2.29249C19.5719-14.0051 25.6416-25.5529 34.9164-31.8217C36.0327-32.5911 36.0411-33.8604 34.8444-34.7017C25.6416-41.1229 19.5719-52.5184 20.1399-64.087C20.1146-64.4379 20.3682-64.7 20.6387-64.6747C33.6212-63.871 43.6023-57.4673 53.6171-44.5782C54.2936-43.6182 55.4398-43.6097 56.1247-44.4724C71.7515-61.3814 90.1334-68.3313 110.751-68.3313C137.467-68.3313 171.61-52.6376 171.682-33.23C171.61-13.8223 137.467 1.79939 110.751 1.79939ZM146.544-30.6402C149.037-30.6402 151.174-32.7053 151.174-35.2697C151.174-37.8342 149.037-39.8992 146.544-39.8992C143.98-39.8992 141.843-37.8342 141.843-35.2697C141.843-32.7053 143.98-30.6402 146.544-30.6402ZM94.1943 1.33208L91.7479 20.7206C91.4561 23.1445 93.0847 24.231 95.7622 23.7614C110.368 21.4759 124.829 12.5847 133.447 1.57279L127.872 2.19029C119.847 10.8554 108.366 17.4796 96.5946 19.6633C96.1548 19.7055 95.9647 19.4643 95.99 19.029L97.9414 2.57212Z"/>
  </g>
  <g id="Ultralight-L" transform="matrix(1 0 0 1 465.919 1556)">
   <path d="M82.2-65.0507L84.4225-66.7305C83.2877-72.8065 80.7362-77.8505 75.5579-84.7576C75.4285-84.869 75.4195-85.0699 75.6249-85.2262C96.2483-96.6921 125.062-87.5647 134.043-65.8688L137.696-63.7366C129.738-88.7413 96.835-99.8384 73.5366-86.9941C72.0316-86.1634 72.2463-84.6718 73.1929-83.4394C78.9427-75.9339 80.9937-71.1622 82.2-65.0507ZM108.76 4.17337C135.986 4.17337 171.416-12.0526 171.501-33.398C171.416-54.748 135.986-71.1437 108.76-71.1437C88.1677-71.1437 69.2384-64.2456 53.7313-47.9248C43.4021-60.7296 32.2556-67.3016 18.2495-67.5428C16.5746-67.5383 16.3967-67.4139 16.2448-65.9133C14.9581-53.4886 21.0835-40.7113 30.4257-33.398C21.0835-26.2546 14.9581-13.2225 16.2448-0.887256C16.3967 0.617813 16.5746 0.822686 18.2495 0.827178C32.2556 0.501006 43.4021-6.06647 53.7313-18.7863C69.2384-2.55495 88.1677 4.17337 108.76 4.17337ZM108.76 1.68303C88.0648 1.68303 69.7919-5.13469 54.3738-21.8841C53.9991-22.3302 53.2492-22.3347 52.8745-21.8171C42.5938-8.68126 32.38-2.26564 18.958-1.70764C18.8556-1.72112 18.7441-1.83254 18.7307-1.93048C17.8007-14.0568 23.9351-26.1476 33.6623-32.5457C34.3002-32.8755 34.2957-33.925 33.5774-34.3397C23.9351-40.9031 17.8007-52.8286 18.7307-64.7852C18.7441-64.968 18.8556-65.0749 18.958-65.0884C32.38-64.5304 42.5938-58.2042 52.7896-44.9789C53.1688-44.381 53.9142-44.3854 54.2889-44.912C69.8768-61.6659 88.0648-68.564 108.76-68.564C135.45-68.564 168.908-53.2581 168.993-33.398C168.908-13.5379 135.45 1.68303 108.76 1.68303ZM143.803-31.0798C146.05-31.0798 147.993-32.938 147.993-35.2697C147.993-37.6014 146.05-39.4596 143.803-39.4596C141.472-39.4596 139.529-37.6014 139.529-35.2697C139.529-32.938 141.472-31.0798 143.803-31.0798ZM92.9273 0.452927L90.5326 19.3372C90.3183 21.1276 91.5462 21.6582 93.448 21.292C107.731 19.0583 121.351 10.8523 129.827 0.447988L125.894 0.858627C117.843 9.92451 105.716 16.6263 93.621 18.6678C93.3622 18.6454 93.3402 18.4041 93.3267 18.2662L95.3686 1.64126Z"/>
  </g>
  <g id="Black-M" transform="matrix(1 0 0 1 2840.86 1126)">
   <path d="M78.1006-61.79L91.6463-64.1371C90.6708-70.3436 89.8385-75.3811 86.5746-80.8645C86.2973-81.2779 86.3654-81.6855 86.9388-81.8156C101.646-84.9858 119.262-76.9201 121.393-60.9222L134.95-63.2711C131.051-90.6735 96.6037-103.99 72.9327-90.921C68.8197-88.6852 67.6794-83.9277 71.0082-79.5634C76.5713-72.1564 76.8805-69.7124 78.1006-61.79ZM104.998 9.59363C130.892 9.59363 172.61-7.6755 172.61-32.552C172.61-57.4801 130.892-74.6916 104.998-74.6916C87.8545-74.6916 69.7887-68.8547 54.9599-55.6875C45.3831-65.5148 34.011-71.1652 21.084-71.4092C16.7432-71.4717 13.0637-68.4585 12.5855-63.9403C11.5316-52.8063 16.0219-40.7293 23.1756-32.552C16.0219-24.4312 11.5316-12.3551 12.5855-1.1582C13.0637 3.2974 16.7432 6.31583 21.084 6.25324C34.011 6.06661 45.3831 0.410808 54.9599-9.47395C69.7887 3.75613 87.8545 9.59363 104.998 9.59363ZM104.998-5.75172C88.4477-5.75172 72.9663-11.4693 59.9486-26.1039C56.7595-29.7089 52.0268-29.5893 48.8948-25.7397C41.5783-16.7487 35.9393-12.6559 29.2145-10.3403C28.6759-10.1525 28.3767-10.4517 28.5074-10.9958C29.6368-15.9925 33.5451-22.2424 38.883-26.6527C43.8202-30.9245 43.1405-34.9163 38.8833-38.5026C34.2874-42.347 30.4361-47.507 28.5074-54.1601C28.3196-54.7039 28.6759-55.0086 29.2145-54.8209C36.6245-52.2768 42.4919-47.2647 48.8951-39.4215C51.9645-35.5667 56.7598-35.5041 59.9489-39.0001C72.966-53.6293 88.4477-59.352 104.998-59.352C127.179-59.352 157.458-45.0551 157.458-32.552C157.458-20.0489 127.179-5.75172 104.998-5.75172ZM139.006-29.026C142.345-29.026 145.126-31.8082 145.126-35.1465C145.126-38.4848 142.345-41.2669 139.006-41.2669C135.668-41.2669 132.886-38.4848 132.886-35.1465C132.886-31.8082 135.668-29.026 139.006-29.026ZM85.1496-2.6925L82.5163 18.854C81.6683 25.648 86.3806 30.8984 94.3304 29.5723C110.816 27.0636 130.116 13.1506 137.067-1.49813L118.435 0.73355C112.158 5.70915 106.466 10.4478 99.6038 13.0417C99.0494 13.2404 98.6302 12.9964 98.7038 12.3977L99.9374-0.708233Z"/>
  </g>
  <g id="Heavy-M" transform="matrix(1 0 0 1 2546.81 1126)">
   <path d="M76.0669-61.5999L88.0736-63.7263C87.1469-69.6833 86.214-74.5193 82.8648-79.9976C82.5381-80.4772 82.6145-80.9426 83.1944-81.0837C98.0971-84.7679 116.29-76.8195 118.934-60.8127L131.029-62.804C126.816-89.0282 93.5831-101.7 70.7042-89.0673C66.9868-87.0509 65.9985-82.8045 69.0015-78.8538C74.4203-71.6661 74.9142-69.0047 76.0669-61.5999ZM102.111 7.74489C127.211 7.74489 167.296-8.93688 167.298-32.6796C167.296-56.4495 127.211-73.0922 102.111-73.0922C85.2618-73.0922 67.6205-67.3194 53.1822-54.2625C43.8467-64.0597 32.7944-69.6433 20.1618-69.8739C16.2655-69.9339 13.0047-67.2701 12.5855-63.231C11.5451-52.3356 16.0565-40.5119 23.191-32.6796C16.0565-24.8955 11.5451-13.0649 12.5855-2.11173C13.0047 1.86734 16.2655 4.5498 20.1618 4.48976C32.7944 4.30058 43.8467-1.29946 53.1822-11.138C67.6205 1.97662 85.2618 7.74489 102.111 7.74489ZM102.111-5.8421C85.7614-5.8421 70.4101-11.509 57.5804-25.9218C54.7625-29.0965 50.6186-28.9928 47.8444-25.5921C40.5704-16.6342 34.6294-12.2821 27.4807-10.1632C26.881-9.98314 26.4887-10.3755 26.6252-10.9916C27.683-16.6091 31.7254-23.0472 37.1258-27.4562C41.4968-31.2233 40.9897-34.6865 37.1235-37.9325C32.2925-41.9262 28.2937-47.5145 26.6252-54.3925C26.4451-55.0109 26.881-55.4196 27.4807-55.2395C35.1528-52.9462 41.2684-47.882 47.8421-39.8106C50.5563-36.3913 54.7602-36.3312 57.5781-39.4374C70.4124-53.8338 85.7614-59.5193 102.111-59.5193C123.964-59.5193 153.905-45.4069 153.907-32.6796C153.905-19.9522 123.964-5.8421 102.111-5.8421ZM135.257-29.2881C138.466-29.2881 141.142-31.962 141.142-35.1734C141.142-38.3848 138.466-41.0587 135.257-41.0587C132.046-41.0587 129.369-38.3848 129.369-35.1734C129.369-31.962 132.046-29.2881 135.257-29.2881ZM83.3225-2.96069L80.8206 17.462C80.0554 23.6187 84.2842 28.2875 91.4877 27.1032C107.02 24.7259 125.103 11.9052 132.106-1.80142L115.497 0.187225C109.256 5.24209 103.341 10.0096 96.213 12.5079C95.5596 12.7209 95.0659 12.4903 95.1587 11.7079L96.3833-1.1753Z"/>
  </g>
  <g id="Bold-M" transform="matrix(1 0 0 1 2253.07 1126)">
   <path d="M73.792-61.3872L84.077-63.2667C83.2049-68.9446 82.1594-73.5553 78.7149-79.0278C78.3328-79.5815 78.4186-80.1117 79.0058-80.2649C94.1273-84.5241 112.965-76.707 116.184-60.6903L126.642-62.2815C122.079-87.1878 90.2041-99.1391 68.2111-86.9937C64.9364-85.2227 64.1181-81.548 66.7567-78.06C72.0141-71.1177 72.7146-68.2129 73.792-61.3872ZM98.8824 5.6768C123.094 5.6768 161.351-10.3479 161.356-32.8223C161.351-55.2966 123.094-71.303 98.8824-71.303C82.3615-71.303 65.1951-65.6019 51.1937-52.6685C42.1279-62.4319 31.4336-67.9409 19.1303-68.1564C15.7311-68.2136 12.9387-65.9407 12.5855-62.4375C11.5601-51.809 16.0952-40.2686 23.2081-32.8223C16.0952-25.4148 11.5601-13.859 12.5855-3.1784C12.9387 0.267615 15.7311 2.57424 19.1303 2.51706C31.4336 2.32502 42.1279-3.21264 51.1937-12.9995C65.1951-0.0140134 82.3615 5.6768 98.8824 5.6768ZM98.8824-5.94321C82.7563-5.94321 67.5506-11.5534 54.9312-25.718C52.5286-28.4114 49.0433-28.3257 46.6693-25.4271C39.4429-16.506 33.164-11.8639 25.5412-9.96519C24.8732-9.79368 24.3767-10.2902 24.5197-10.9868C25.4974-17.2989 29.6898-23.9475 35.1601-28.355C38.8977-31.5576 38.5837-34.4295 35.155-37.2947C30.0609-41.4555 25.8971-47.5229 24.5197-54.6525C24.3481-55.3542 24.8732-55.8794 25.5412-55.7079C33.5066-53.695 39.8997-48.5727 46.6642-40.246C48.981-37.3137 52.5235-37.2565 54.926-39.9265C67.5558-54.0625 82.7563-59.7065 98.8824-59.7065C120.367-59.7065 149.931-45.8005 149.936-32.8223C149.931-19.8441 120.367-5.94321 98.8824-5.94321ZM131.063-29.5813C134.127-29.5813 136.685-32.134 136.685-35.2035C136.685-38.2731 134.127-40.8258 131.063-40.8258C127.994-40.8258 125.436-38.2731 125.436-35.2035C125.436-32.134 127.994-29.5813 131.063-29.5813ZM81.2786-3.2607L78.9239 15.9048C78.2512 21.3486 81.9391 25.3669 88.3077 24.3411C102.774 22.1109 119.495 10.512 126.557-2.1407L112.21-0.423918C106.009 4.71961 99.8458 9.51933 92.4199 11.9109C91.6558 12.1396 91.0786 11.9242 91.193 10.9362L92.4076-1.69777Z"/>
  </g>
  <g id="Semibold-M" transform="matrix(1 0 0 1 1958.41 1126)">
   <path d="M72.2236-61.2406L81.3218-62.9499C80.4873-68.4353 79.3642-72.8907 75.8539-78.3593C75.4337-78.964 75.5259-79.5388 76.1181-79.7004C91.3905-84.356 110.672-76.6294 114.287-60.6059L123.618-61.9213C118.813-85.919 87.8746-97.3732 66.4925-85.5642C63.5229-83.9623 62.8217-80.6819 65.2092-77.5128C70.3553-70.7396 71.1983-67.6671 72.2236-61.2406ZM96.6563 4.25107C120.256 4.25107 157.253-11.3207 157.26-32.9206C157.253-54.5017 120.256-70.0695 96.6563-70.0695C80.362-70.0695 63.523-64.4179 49.8228-51.5696C40.943-61.3097 30.4954-66.7673 18.4191-66.9724C15.3627-67.0276 12.8932-65.0242 12.5855-61.8905C11.5705-51.446 16.1219-40.1009 23.22-32.9206C16.1219-25.7728 11.5705-14.4064 12.5855-3.91375C12.8932-0.835227 15.3627 1.2123 18.4191 1.1571C30.4954 0.963077 40.943-4.53157 49.8228-14.2827C63.523-1.38634 80.362 4.25107 96.6563 4.25107ZM96.6563-6.01292C80.6847-6.01292 65.5793-11.5841 53.1048-25.5775C50.9886-27.9391 47.9573-27.8657 45.8593-25.3133C38.6656-16.4176 32.1538-11.5756 24.2042-9.82866C23.4891-9.66307 22.9207-10.2315 23.0681-10.9836C23.9907-17.7744 28.2864-24.5682 33.805-28.9746C37.1059-31.788 36.9251-34.2523 33.7979-36.855C28.5225-41.131 24.2449-47.5286 23.0681-54.8317C22.9025-55.591 23.4891-56.1964 24.2042-56.0308C32.3717-54.2112 38.9561-49.0487 45.8522-40.5461C47.895-37.9496 50.9815-37.8944 53.0977-40.2638C65.5864-54.2202 80.6847-59.8355 96.6563-59.8355C117.888-59.8355 147.191-46.0718 147.198-32.9206C147.191-19.7695 117.888-6.01292 96.6563-6.01292ZM128.172-29.7834C131.136-29.7834 133.613-32.2527 133.613-35.2243C133.613-38.196 131.136-40.6653 128.172-40.6653C125.2-40.6653 122.724-38.196 122.724-35.2243C122.724-32.2527 125.2-29.7834 128.172-29.7834ZM79.8696-3.46752L77.6162 14.8313C77.0073 19.7837 80.3224 23.3534 86.1154 22.4369C99.8463 20.3082 115.629 9.55153 122.732-2.3746L109.945-0.845236C103.77 4.35942 97.436 9.18136 89.8049 11.4993C88.9645 11.7389 88.3299 11.5339 88.4592 10.4042L89.6667-2.05796Z"/>
  </g>
  <g id="Medium-M" transform="matrix(1 0 0 1 1663.25 1126)">
   <path d="M71.0344-61.1295L79.2327-62.7097C78.4267-68.0492 77.2448-72.3868 73.6846-77.8524C73.2355-78.4958 73.3326-79.1044 73.9286-79.2724C89.3154-84.2285 108.934-76.5705 112.85-60.5419L121.324-61.6482C116.337-84.957 86.1083-96.0343 65.1893-84.4803C62.4511-83.0066 61.8388-80.0251 64.0358-77.0979C69.0975-70.4529 70.0485-67.2533 71.0344-61.1295ZM94.9684 3.17002C118.103 3.17002 154.145-12.0583 154.154-32.9952C154.145-53.8991 118.103-69.1343 94.9684-69.1343C78.846-69.1343 62.2551-63.5202 48.7833-50.7364C40.0445-60.4588 29.784-65.8775 17.8799-66.0746C15.0833-66.1283 12.8587-64.3293 12.5855-61.4757C11.5784-51.1707 16.1422-39.9737 23.2289-32.9952C16.1422-26.0442 11.5784-14.8214 12.5855-4.47133C12.8587-1.67145 15.0833 0.179616 17.8799 0.125913C29.784-0.0696023 40.0445-5.53164 48.7833-15.2558C62.2551-2.4269 78.846 3.17002 94.9684 3.17002ZM94.9684-6.06577C79.1139-6.06577 64.0846-11.6073 51.72-25.471C49.8209-27.5809 47.1339-27.517 45.245-25.2271C38.0762-16.3506 31.3878-11.357 23.1904-9.72514C22.4396-9.56403 21.8167-10.1869 21.9675-10.9811C22.8482-18.1349 27.2223-25.0388 32.7775-29.4444C35.7473-31.9627 35.6674-34.1179 32.7689-36.5216C27.3559-40.885 22.9921-47.533 21.9675-54.9676C21.8064-55.7704 22.4396-56.4367 23.1904-56.2756C31.5111-54.6026 38.2407-49.4097 45.2364-40.7737C47.0716-38.4318 49.8123-38.3781 51.7114-40.5195C64.0932-54.3397 79.1139-59.9333 94.9684-59.9333C116.008-59.9333 145.114-46.2775 145.122-32.9952C145.114-19.713 116.008-6.06577 94.9684-6.06577ZM125.98-29.9367C128.869-29.9367 131.283-32.3426 131.283-35.2401C131.283-38.1376 128.869-40.5435 125.98-40.5435C123.082-40.5435 120.668-38.1376 120.668-35.2401C120.668-32.3426 123.082-29.9367 125.98-29.9367ZM78.8012-3.62435L76.6247 14.0174C76.0642 18.597 79.0965 21.8267 84.4532 20.9931C97.6266 18.9413 112.698 8.82327 119.831-2.55195L108.227-1.1647C102.073 4.08631 95.6088 8.92509 87.8222 11.1871C86.9239 11.4351 86.2456 11.2379 86.3862 10.0008L87.5884-2.33108Z"/>
  </g>
  <g id="Regular-M" transform="matrix(1 0 0 1 1368.56 1126)">
   <path d="M69.4834-60.9845L76.5078-62.3964C75.739-67.5456 74.4804-71.7295 70.8551-77.1912C70.3682-77.8851 70.4717-78.5378 71.0727-78.7142C86.6087-84.0623 106.667-76.4938 110.974-60.4584L118.333-61.292C113.107-83.7021 83.8044-94.2879 63.4895-83.0665C61.0531-81.7601 60.5567-79.1684 62.5052-76.5566C67.4569-70.0789 68.5488-66.7135 69.4834-60.9845ZM92.7667 1.75996C115.296 1.75996 150.092-13.0203 150.102-33.0925C150.092-53.113 115.296-67.9144 92.7667-67.9144C76.8685-67.9144 60.6014-62.3492 47.4275-49.6496C38.8727-59.349 28.8562-64.7167 17.1765-64.9037C14.719-64.9554 12.8137-63.4229 12.5855-60.9347C11.5887-50.8117 16.1686-39.8079 23.2406-33.0925C16.1686-26.3983 11.5887-15.3628 12.5855-5.1986C12.8137-2.76217 14.719-1.16736 17.1765-1.21911C28.8562-1.41658 38.8727-6.83608 47.4275-16.525C60.6014-3.78415 76.8685 1.75996 92.7667 1.75996ZM92.7667-6.13471C77.065-6.13471 62.1349-11.6376 49.9137-25.3321C48.2978-27.1138 46.0598-27.0621 44.4439-25.1145C37.3075-16.2633 30.3887-11.0719 21.868-9.59011C21.0706-9.43485 20.3767-10.1288 20.532-10.9779C21.358-18.6052 25.8344-25.6526 31.4373-30.0572C33.9752-32.1906 34.027-33.9427 31.4267-36.0867C25.8344-40.5641 21.358-47.5387 20.532-55.1449C20.3767-56.0046 21.0706-56.7502 21.868-56.595C30.3887-55.1132 37.3075-49.8806 44.4333-41.0705C45.9975-39.0607 48.2872-39.0089 49.9031-40.853C62.1455-54.4957 77.065-60.0609 92.7667-60.0609C113.555-60.0609 142.404-46.5458 142.415-33.0925C142.404-19.6393 113.555-6.13471 92.7667-6.13471ZM123.12-30.1366C125.91-30.1366 128.244-32.4599 128.244-35.2606C128.244-38.0614 125.91-40.3847 123.12-40.3847C120.32-40.3847 117.986-38.0614 117.986-35.2606C117.986-32.4599 120.32-30.1366 123.12-30.1366ZM77.4076-3.8289L75.3314 12.9557C74.834 17.0493 77.4976 19.8354 82.285 19.1098C94.7314 17.1583 108.874 7.87337 116.048-2.78327L105.986-1.58139C99.8589 3.73007 93.2255 8.59084 85.236 10.7801C84.2622 11.0388 83.5271 10.8519 83.6823 9.47466L84.8777-2.68731Z"/>
  </g>
  <g id="Light-M" transform="matrix(1 0 0 1 1074.52 1126)">
   <path d="M67.6867-60.1631L73.0685-61.5408C72.2655-66.5531 70.7844-70.6515 67.0394-76.079C66.6723-76.5847 66.7416-77.0834 67.2056-77.2427C82.8785-83.6859 103.639-76.2714 108.767-59.9964L114.723-60.06C109.206-81.529 81.0838-91.4988 61.4705-80.671C59.4276-79.5699 59.1365-77.4231 60.7086-75.3246C65.5063-69.0523 66.7521-65.5842 67.6867-60.1631ZM90.1317-0.242018C112.216-0.242018 144.736-14.3379 144.764-33.315C144.736-52.2574 112.216-66.4086 90.1317-66.4086C74.2163-66.4086 58.4455-60.9118 45.6308-48.2293C37.2471-57.9972 27.6584-63.2794 16.2354-63.4663C14.1372-63.501 12.7794-62.4134 12.5855-60.3358C11.5887-50.3668 16.2199-39.7052 23.3433-33.315C16.2199-26.9801 11.5887-16.2355 12.5855-6.25948C12.7794-4.2166 14.1372-3.06667 16.2354-3.10131C27.6584-3.31589 37.2471-8.63273 45.6308-18.3729C58.4455-5.68347 74.2163-0.242018 90.1317-0.242018ZM90.1317-6.2887C74.3272-6.2887 59.6367-11.7232 47.501-25.1952C46.2958-26.5321 44.5711-26.4974 43.3659-25.029C35.9728-15.767 28.746-10.6441 19.6436-9.48745C19.0686-9.38352 18.5629-9.8892 18.6669-10.4988C19.0138-18.6736 23.5758-26.4397 29.7775-31.0154C31.6824-32.5671 31.717-34.0283 29.7499-35.6076C23.5758-40.2732 19.0138-47.9493 18.6669-56.0688C18.5629-56.7061 19.0686-57.2464 19.6436-57.1425C28.746-55.9859 35.9728-50.8559 43.3382-41.601C44.5088-40.0702 46.2681-40.0356 47.4734-41.4347C59.6644-54.8721 74.3272-60.3689 90.1317-60.3689C110.886-60.3689 138.828-47.3671 138.855-33.315C138.828-19.2628 110.886-6.2887 90.1317-6.2887ZM119.493-30.7183C121.958-30.7183 124.035-32.7679 124.035-35.2606C124.035-37.7534 121.958-39.8029 119.493-39.8029C117-39.8029 114.923-37.7534 114.923-35.2606C114.923-32.7679 117-30.7183 119.493-30.7183ZM75.7307-4.99244L73.723 11.1248C73.3282 14.3799 75.4613 16.4303 79.2221 15.8417C91.2407 13.9586 104.271 5.5805 111.257-4.27192L103.368-3.34381C97.2067 2.49808 89.7178 7.46152 81.3004 9.46251C80.5662 9.63572 80.0536 9.44881 80.1575 8.46511L81.4726-3.9193Z"/>
  </g>
  <g id="Thin-M" transform="matrix(1 0 0 1 781.34 1126)">
   <path d="M65.3105-59.0769L68.5197-60.4093C67.6715-65.2406 65.8962-69.2258 61.9928-74.608C61.7841-74.8648 61.8081-75.1598 62.0911-75.2964C77.945-83.188 99.633-75.9772 105.848-59.3854L109.948-58.4306C104.046-78.6549 77.4855-87.81 58.8-77.5027C57.2777-76.6732 57.2581-75.1148 58.3324-73.6952C62.9264-67.6945 64.3759-64.0906 65.3105-59.0769ZM86.6465-2.8898C108.142-2.8898 137.653-16.0804 137.703-33.6092C137.653-51.1259 108.142-64.4171 86.6465-64.4171C70.7086-64.4171 55.594-59.0109 43.2546-46.351C35.0972-56.2094 26.0742-61.3785 14.9907-61.5654C13.3678-61.5774 12.7342-61.0781 12.5855-59.5438C11.5887-49.7784 16.2878-39.5694 23.4791-33.6092C16.2878-27.7495 11.5887-17.3896 12.5855-7.66257C12.7342-6.1402 13.3678-5.57867 14.9907-5.59068C26.0742-5.82789 35.0972-11.0089 43.2546-20.817C55.594-8.19546 70.7086-2.8898 86.6465-2.8898ZM86.6465-6.49238C70.7063-6.49238 56.3327-11.8363 44.3101-25.0142C43.648-25.7626 42.6023-25.7506 41.9402-24.9158C34.2076-15.1108 26.5735-10.0783 16.7016-9.35166C16.4208-9.31563 16.1641-9.57237 16.2001-9.86515C15.9134-18.7642 20.5885-27.4807 27.5824-32.2827C28.6499-33.0649 28.6619-34.1414 27.5321-34.9739C20.5885-39.8885 15.9134-48.4925 16.2001-57.2909C16.1641-57.634 16.4208-57.9027 16.7016-57.8667C26.5735-57.14 34.2076-52.1459 41.8899-42.3025C42.54-41.4054 43.5977-41.3934 44.2598-42.2042C56.383-55.37 70.7063-60.7763 86.6465-60.7763C107.356-60.7763 134.098-48.4534 134.148-33.6092C134.098-18.765 107.356-6.49238 86.6465-6.49238ZM114.695-31.4878C116.73-31.4878 118.468-33.1753 118.468-35.2606C118.468-37.346 116.73-39.0335 114.695-39.0335C112.61-39.0335 110.872-37.346 110.872-35.2606C110.872-33.1753 112.61-31.4878 114.695-31.4878ZM73.5129-6.53132L71.5957 8.70336C71.3368 10.8496 72.7683 11.9268 75.1713 11.5192C86.6241 9.72664 98.1836 2.548 104.92-6.24079L99.9054-5.67476C93.699 0.868681 85.0785 5.9679 76.0954 7.71995C75.678 7.78001 75.4596 7.5931 75.4956 7.12991L76.9691-5.5487Z"/>
  </g>
  <g id="Ultralight-M" transform="matrix(1 0 0 1 486.437 1126)">
   <path d="M64.0934-58.5205L66.1899-59.8297C65.3184-64.5683 63.3925-68.4956 59.4079-73.8546C59.2804-73.9838 59.2812-74.1745 59.4715-74.2996C75.4181-82.933 97.5813-75.8265 104.352-59.0724L107.502-57.596C101.403-77.1828 75.6425-85.9206 57.4323-75.8799C56.1765-75.1895 56.2961-73.9325 57.1153-72.8607C61.605-66.999 63.1588-63.3255 64.0934-58.5205ZM84.8615-4.24598C106.056-4.24598 134.024-16.973 134.086-33.7599C134.024-50.5463 106.056-63.3971 84.8615-63.3971C68.9119-63.3971 54.1335-58.0372 42.0375-45.3889C33.996-55.2937 25.2629-60.4048 14.3532-60.5917C12.9737-60.5921 12.711-60.3943 12.5855-59.1381C11.5887-49.4771 16.3226-39.4999 23.5486-33.7599C16.3226-28.1436 11.5887-17.9808 12.5855-8.38123C12.711-7.12546 12.9737-6.8653 14.3532-6.86572C25.2629-7.11452 33.996-12.226 42.0375-22.0689C54.1335-9.4821 68.9119-4.24598 84.8615-4.24598ZM84.8615-6.5967C68.8517-6.5967 54.6403-11.8943 42.6757-24.9214C42.2918-25.3685 41.5938-25.3681 41.2099-24.8579C33.3035-14.7746 25.4607-9.78855 15.1947-9.28211C15.0647-9.28085 14.9354-9.41009 14.9367-9.54059C14.3254-18.8105 19.0585-28.0139 26.458-32.9318C27.0966-33.3199 27.097-34.1994 26.3961-34.6494C19.0585-39.6914 14.3254-48.7707 14.9367-57.9168C14.9354-58.1092 15.0647-58.2389 15.1947-58.2376C25.4607-57.7312 33.3035-52.8066 41.148-42.6619C41.5315-42.0893 42.2299-42.0889 42.6139-42.5983C54.7022-55.625 68.8517-60.9849 84.8615-60.9849C105.547-60.9849 131.675-49.0098 131.737-33.7599C131.675-18.5099 105.547-6.5967 84.8615-6.5967ZM112.238-31.8819C114.052-31.8819 115.616-33.3839 115.616-35.2606C115.616-37.1374 114.052-38.6394 112.238-38.6394C110.361-38.6394 108.797-37.1374 108.797-35.2606C108.797-33.3839 110.361-31.8819 112.238-31.8819ZM72.377-7.31953L70.5062 7.4631C70.3167 9.04133 71.3889 9.62017 73.0964 9.30528C84.2595 7.55907 95.0655 0.994771 101.674-7.24923L98.132-6.86867C91.9023 0.0341087 82.7023 5.20287 73.4294 6.82742C73.1743 6.82953 73.1065 6.64261 73.1078 6.44602L74.6625-6.38327Z"/>
  </g>
  <g id="Black-S" transform="matrix(1 0 0 1 2860.23 696)">
   <path d="M61.7188-56.0547L72.7051-57.959C71.9238-62.8906 71.2891-66.8945 68.75-71.1914C68.5547-71.4844 68.6035-71.7773 69.043-71.875C80.5176-74.2676 94.1895-67.9199 95.752-55.3711L106.738-57.2754C103.76-79.0527 76.4648-89.6484 57.7148-79.2969C54.3945-77.4902 53.4668-73.6328 56.1523-70.1172C60.5469-64.2578 60.7422-62.4023 61.7188-56.0547ZM83.0078 0.341797C103.516 0.341797 136.572-13.3301 136.572-33.1055C136.572-52.9297 103.516-66.5527 83.0078-66.5527C69.4824-66.5527 55.2246-61.9629 43.5059-51.6113C35.9375-59.3262 26.9531-63.7695 16.748-63.9648C13.2324-64.0137 10.2539-61.5723 9.86328-57.9102C9.0332-49.1211 12.5488-39.5996 18.1641-33.1055C12.5488-26.6602 9.0332-17.1387 9.86328-8.30078C10.2539-4.6875 13.2324-2.24609 16.748-2.29492C26.9531-2.44141 35.9375-6.88477 43.5059-14.6484C55.2246-4.24805 69.4824 0.341797 83.0078 0.341797ZM83.0078-12.1094C69.9707-12.1094 57.8125-16.6016 47.5586-28.125C44.9707-31.0547 41.1133-30.957 38.5742-27.832C32.8125-20.752 28.4668-17.627 23.291-15.7715C22.9004-15.625 22.7051-15.8203 22.8027-16.2109C23.6816-19.9707 26.709-24.8535 30.9082-28.3203C34.9121-31.7871 34.3262-35.0586 30.9082-37.9395C27.3438-40.918 24.3652-44.873 22.8027-50.0488C22.6562-50.4395 22.9004-50.6348 23.291-50.4883C29.0527-48.4375 33.5938-44.5312 38.5742-38.4277C41.0645-35.3027 44.9707-35.2539 47.5586-38.0859C57.8125-49.6094 69.9707-54.1016 83.0078-54.1016C100.488-54.1016 124.268-42.8711 124.268-33.1055C124.268-23.3398 100.488-12.1094 83.0078-12.1094ZM109.863-30.3223C112.5-30.3223 114.697-32.5195 114.697-35.1562C114.697-37.793 112.5-39.9902 109.863-39.9902C107.227-39.9902 105.029-37.793 105.029-35.1562C105.029-32.5195 107.227-30.3223 109.863-30.3223ZM67.1875-9.7168L65.0879 7.4707C64.4043 12.9395 68.2129 17.1875 74.6094 16.1133C87.793 14.1113 103.223 2.92969 108.643-8.78906L93.5547-6.98242C88.623-3.07617 84.1797 0.634766 78.8574 2.68555C78.4668 2.83203 78.1738 2.63672 78.2227 2.24609L79.1992-8.10547Z"/>
  </g>
  <g id="Heavy-S" transform="matrix(1 0 0 1 2565.45 696)">
   <path d="M60.209-55.9971L70.089-57.717C69.3539-62.4527 68.6615-66.2953 66.0648-70.5921C65.8119-70.9658 65.8722-71.3279 66.3347-71.4371C77.9591-74.1293 92.0344-67.8623 93.9311-55.3365L103.846-57.0334C100.637-77.9233 74.2291-88.0465 56.0668-78.0177C53.0346-76.3724 52.2106-72.8952 54.6657-69.6677C58.9565-63.9697 59.2901-61.9414 60.209-55.9971ZM80.8758-0.983517C100.761-0.983517 132.712-14.2405 132.712-33.1861C132.712-52.1575 100.761-65.3772 80.8758-65.3772C67.6039-65.3772 53.6458-60.8335 42.2151-50.5741C34.8312-58.2544 26.0657-62.6517 16.0796-62.8354C12.8982-62.8843 10.2078-60.6849 9.86328-57.38C9.04473-48.7754 12.5719-39.4267 18.1641-33.1861C12.5719-26.9828 9.04473-17.6342 9.86328-8.98072C10.2078-5.7247 12.8982-3.51378 16.0796-3.56261C26.0657-3.7091 34.8312-8.11788 42.2151-15.8355C53.6458-5.52726 67.6039-0.983517 80.8758-0.983517ZM80.8758-12.167C68.0231-12.167 55.9455-16.6246 45.8414-27.9867C43.5186-30.6052 40.0991-30.5191 37.8136-27.7168C32.121-20.7174 27.5564-17.3619 22.0925-15.6332C21.6212-15.4867 21.3221-15.7857 21.4313-16.2686C22.3102-20.4893 25.4413-25.4413 29.6175-28.885C33.218-31.9945 32.7819-34.8512 29.6175-37.513C25.9262-40.5953 22.8325-44.8269 21.4313-50.1295C21.2848-50.6123 21.6212-50.9229 22.0925-50.7764C28.004-48.8985 32.7179-44.9346 37.8136-38.6928C40.0503-35.879 43.5186-35.8301 45.8414-38.3856C55.9455-49.7361 68.0231-54.2053 80.8758-54.2053C98.0797-54.2053 121.686-43.067 121.686-33.1861C121.686-23.3053 98.0797-12.167 80.8758-12.167ZM107.12-30.4721C109.688-30.4721 111.828-32.6117 111.828-35.1793C111.828-37.7469 109.688-39.8865 107.12-39.8865C104.553-39.8865 102.413-37.7469 102.413-35.1793C102.413-32.6117 104.553-30.4721 107.12-30.4721ZM65.8391-9.79747L63.8432 6.51417C63.2173 11.545 66.6801 15.3897 72.5695 14.4192C84.9925 12.521 99.5233 2.15755 105.012-8.85821L91.3766-7.22444C86.4795-3.31819 81.9555 0.404276 76.4603 2.39744C75.9545 2.56697 75.5693 2.38318 75.6412 1.78512L76.5947-8.34748Z"/>
  </g>
  <g id="Bold-S" transform="matrix(1 0 0 1 2270.9 696)">
   <path d="M58.5205-55.9326L67.1631-57.4463C66.4795-61.9629 65.7227-65.625 63.0615-69.9219C62.7441-70.3857 62.8174-70.8252 63.3057-70.9473C75.0977-73.9746 89.624-67.7979 91.8945-55.2979L100.61-56.7627C97.1436-76.6602 71.7285-86.2549 54.2236-76.5869C51.5137-75.1221 50.8057-72.0703 53.0029-69.165C57.1777-63.6475 57.666-61.4258 58.5205-55.9326ZM78.4912-2.46582C97.6807-2.46582 128.394-15.2588 128.394-33.2764C128.394-51.2939 97.6807-64.0625 78.4912-64.0625C65.5029-64.0625 51.8799-59.5703 40.7715-49.4141C33.5938-57.0557 25.0732-61.4014 15.332-61.5723C12.5244-61.6211 10.1562-59.6924 9.86328-56.7871C9.05762-48.3887 12.5977-39.2334 18.1641-33.2764C12.5977-27.3438 9.05762-18.1885 9.86328-9.74121C10.1562-6.88477 12.5244-4.93164 15.332-4.98047C25.0732-5.12695 33.5938-9.49707 40.7715-17.1631C51.8799-6.95801 65.5029-2.46582 78.4912-2.46582ZM78.4912-12.2314C65.8447-12.2314 53.8574-16.6504 43.9209-27.832C41.8945-30.1025 38.9648-30.0293 36.9629-27.5879C31.3477-20.6787 26.5381-17.0654 20.752-15.4785C20.1904-15.332 19.7754-15.7471 19.8975-16.333C20.7764-21.0693 24.0234-26.0986 28.1738-29.5166C31.3232-32.2266 31.0547-34.6191 28.1738-37.0361C24.3408-40.2344 21.1182-44.7754 19.8975-50.2197C19.751-50.8057 20.1904-51.2451 20.752-51.0986C26.8311-49.4141 31.7383-45.3857 36.9629-38.9893C38.916-36.5234 41.8945-36.4746 43.9209-38.7207C53.8574-49.8779 65.8447-54.3213 78.4912-54.3213C95.3857-54.3213 118.799-43.2861 118.799-33.2764C118.799-23.2666 95.3857-12.2314 78.4912-12.2314ZM104.053-30.6396C106.543-30.6396 108.618-32.7148 108.618-35.2051C108.618-37.6953 106.543-39.7705 104.053-39.7705C101.562-39.7705 99.4873-37.6953 99.4873-35.2051C99.4873-32.7148 101.562-30.6396 104.053-30.6396ZM64.3311-9.8877L62.4512 5.44434C61.8896 9.98535 64.9658 13.3789 70.2881 12.5244C81.8604 10.7422 95.3857 1.29395 100.952-8.93555L88.9404-7.49512C84.082-3.58887 79.4678 0.146484 73.7793 2.0752C73.1445 2.27051 72.6562 2.09961 72.7539 1.26953L73.6816-8.61816Z"/>
  </g>
  <g id="Semibold-S" transform="matrix(1 0 0 1 1975.68 696)">
   <path d="M57.3563-55.8882L65.1458-57.2597C64.4978-61.6252 63.6965-65.1629 60.9909-69.4598C60.6291-69.9858 60.7112-70.4786 61.2173-70.6096C73.1248-73.868 87.9622-67.7534 90.4904-55.2712L98.3798-56.5761C94.7353-75.7893 70.0045-85.0196 52.9528-75.6005C50.465-74.2601 49.837-71.5016 51.8565-68.8185C55.9514-63.4253 56.5463-61.0703 57.3563-55.8882ZM76.8472-3.48779C95.5567-3.48779 125.417-15.9608 125.417-33.3386C125.417-50.6985 95.5567-63.1561 76.8472-63.1561C64.0544-63.1561 50.6624-58.6994 39.7762-48.6143C32.7406-56.2292 24.389-60.5394 14.8166-60.7014C12.2667-60.7502 10.1207-59.0081 9.86328-56.3783C9.0665-48.1221 12.6154-39.1001 18.1641-33.3386C12.6154-27.5926 9.0665-18.5706 9.86328-10.2655C10.1207-7.68457 12.2667-5.90918 14.8166-5.95801C24.389-6.10449 32.7406-10.4479 39.7762-18.0784C50.6624-7.94443 64.0544-3.48779 76.8472-3.48779ZM76.8472-12.2759C64.3429-12.2759 52.4178-16.6682 42.5968-27.7254C40.7748-29.756 38.1828-29.6916 36.3764-27.499C30.8145-20.6521 25.836-16.861 19.8277-15.3719C19.204-15.2254 18.709-15.7204 18.8399-16.3774C19.7188-21.4692 23.0459-26.5519 27.1785-29.9521C30.0169-32.3865 29.8639-34.4592 27.1785-36.7073C23.2478-39.9855 19.9362-44.7398 18.8399-50.2819C18.6935-50.939 19.204-51.4673 19.8277-51.3208C26.0224-49.7695 31.0629-45.6968 36.3764-39.1937C38.134-36.9678 40.7748-36.9189 42.5968-38.9518C52.4178-49.9757 64.3429-54.4013 76.8472-54.4013C93.5284-54.4013 116.808-43.4372 116.808-33.3386C116.808-23.2399 93.5284-12.2759 76.8472-12.2759ZM101.938-30.7552C104.375-30.7552 106.405-32.7859 106.405-35.2229C106.405-37.6598 104.375-39.6905 101.938-39.6905C99.5008-39.6905 97.47-37.6598 97.47-35.2229C97.47-32.7859 99.5008-30.7552 101.938-30.7552ZM63.2913-9.9499L61.4914 4.70674C60.9743 8.91006 63.7839 11.9926 68.7151 11.2181C79.7009 9.51582 92.5331 0.698535 98.1528-8.98887L87.2608-7.68174C82.4291-3.77549 77.7526-0.03125 71.9309 1.85303C71.2072 2.06611 70.6479 1.9041 70.7633 0.914062L71.6732-8.80479Z"/>
  </g>
  <g id="Medium-S" transform="matrix(1 0 0 1 1680.09 696)">
   <path d="M56.4736-55.8545L63.6162-57.1182C62.9951-61.3691 62.1602-64.8125 59.4209-69.1094C59.0254-69.6826 59.1143-70.2158 59.6338-70.3535C71.6289-73.7871 86.7021-67.7197 89.4258-55.251L96.6885-56.4346C92.9092-75.1289 68.6973-84.083 51.9893-74.8525C49.6699-73.6064 49.1025-71.0703 50.9873-68.5557C55.0215-63.2568 55.6973-60.8008 56.4736-55.8545ZM75.6006-4.2627C93.9463-4.2627 123.159-16.4932 123.159-33.3857C123.159-50.2471 93.9463-62.4688 75.6006-62.4688C62.9561-62.4688 49.7393-58.0391 39.0215-48.0078C32.0938-55.6025 23.8701-59.8857 14.4258-60.041C12.0713-60.0898 10.0938-58.4893 9.86328-56.0684C9.07324-47.9199 12.6289-38.999 18.1641-33.3857C12.6289-27.7812 9.07324-18.8604 9.86328-10.6631C10.0938-8.29102 12.0713-6.65039 14.4258-6.69922C23.8701-6.8457 32.0938-11.1689 39.0215-18.7725C49.7393-8.69238 62.9561-4.2627 75.6006-4.2627ZM75.6006-12.3096C63.2041-12.3096 51.3262-16.6816 41.5928-27.6445C39.9258-29.4932 37.5898-29.4355 35.9316-27.4316C30.4102-20.6318 25.3037-16.7061 19.127-15.291C18.4561-15.1445 17.9004-15.7002 18.0381-16.4111C18.917-21.7725 22.3047-26.8955 26.4238-30.2822C29.0264-32.5078 28.9609-34.3379 26.4238-36.458C22.4189-39.7969 19.04-44.7129 18.0381-50.3291C17.8916-51.04 18.4561-51.6357 19.127-51.4893C25.4092-50.0391 30.5508-45.9326 35.9316-39.3486C37.541-37.3047 39.9258-37.2559 41.5928-39.127C51.3262-50.0498 63.2041-54.4619 75.6006-54.4619C92.1201-54.4619 115.299-43.5518 115.299-33.3857C115.299-23.2197 92.1201-12.3096 75.6006-12.3096ZM100.334-30.8428C102.73-30.8428 104.728-32.8398 104.728-35.2363C104.728-37.6328 102.73-39.6299 100.334-39.6299C97.9375-39.6299 95.9404-37.6328 95.9404-35.2363C95.9404-32.8398 97.9375-30.8428 100.334-30.8428ZM62.5029-9.99707L60.7637 4.14746C60.2803 8.09473 62.8877 10.9414 67.5225 10.2275C78.0635 8.58594 90.3701 0.24707 96.0303-9.0293L85.9873-7.82324C81.1758-3.91699 76.4521-0.166016 70.5293 1.68457C69.7383 1.91113 69.125 1.75586 69.2539 0.644531L70.1504-8.94629Z"/>
  </g>
  <g id="Regular-S" transform="matrix(1 0 0 1 1384.85 696)">
   <path d="M55.3223-55.8105L61.6211-56.9336C61.0352-61.0352 60.1562-64.3555 57.373-68.6523C56.9336-69.2871 57.0312-69.873 57.5684-70.0195C69.6777-73.6816 85.0586-67.6758 88.0371-55.2246L94.4824-56.25C90.5273-74.2676 66.9922-82.8613 50.7324-73.877C48.6328-72.7539 48.1445-70.5078 49.8535-68.2129C53.8086-63.0371 54.5898-60.4492 55.3223-55.8105ZM73.9746-5.27344C91.8457-5.27344 120.215-17.1875 120.215-33.4473C120.215-49.6582 91.8457-61.5723 73.9746-61.5723C61.5234-61.5723 48.5352-57.1777 38.0371-47.2168C31.25-54.7852 23.1934-59.0332 13.916-59.1797C11.8164-59.2285 10.0586-57.8125 9.86328-55.6641C9.08203-47.6562 12.6465-38.8672 18.1641-33.4473C12.6465-28.0273 9.08203-19.2383 9.86328-11.1816C10.0586-9.08203 11.8164-7.61719 13.916-7.66602C23.1934-7.8125 31.25-12.1094 38.0371-19.6777C48.5352-9.66797 61.5234-5.27344 73.9746-5.27344ZM73.9746-12.3535C61.7188-12.3535 49.9023-16.6992 40.2832-27.5391C38.8184-29.1504 36.8164-29.1016 35.3516-27.3438C29.8828-20.6055 24.6094-16.5039 18.2129-15.1855C17.4805-15.0391 16.8457-15.6738 16.9922-16.4551C17.8711-22.168 21.3379-27.3438 25.4395-30.7129C27.7344-32.666 27.7832-34.1797 25.4395-36.1328C21.3379-39.5508 17.8711-44.6777 16.9922-50.3906C16.8457-51.1719 17.4805-51.8555 18.2129-51.709C24.6094-50.3906 29.8828-46.2402 35.3516-39.5508C36.7676-37.7441 38.8184-37.6953 40.2832-39.3555C49.9023-50.1465 61.7188-54.541 73.9746-54.541C90.2832-54.541 113.33-43.7012 113.33-33.4473C113.33-23.1934 90.2832-12.3535 73.9746-12.3535ZM98.2422-30.957C100.586-30.957 102.539-32.9102 102.539-35.2539C102.539-37.5977 100.586-39.5508 98.2422-39.5508C95.8984-39.5508 93.9453-37.5977 93.9453-35.2539C93.9453-32.9102 95.8984-30.957 98.2422-30.957ZM61.4746-10.0586L59.8145 3.41797C59.375 7.03125 61.7188 9.57031 65.9668 8.93555C75.9277 7.37305 87.5488-0.341797 93.2617-9.08203L84.3262-8.00781C79.541-4.10156 74.7559-0.341797 68.7012 1.46484C67.8223 1.70898 67.1387 1.5625 67.2852 0.292969L68.1641-9.13086Z"/>
  </g>
  <g id="Light-S" transform="matrix(1 0 0 1 1090.5 696)">
   <path d="M53.7329-55.084L58.5786-56.1768C57.9624-60.1572 56.8867-63.4019 53.9976-67.6685C53.6641-68.1367 53.7315-68.5864 54.1475-68.7178C66.378-73.3486 82.3794-67.479 86.0845-54.8159L91.2886-55.1602C87.0762-72.3452 64.5855-80.3941 48.9463-71.7578C47.1948-70.8164 46.8882-68.9639 48.2642-67.1231C52.083-62.1289 53.0005-59.4502 53.7329-55.084ZM71.6436-7.04442C89.1211-7.04442 115.477-18.353 115.492-33.644C115.477-48.9014 89.1211-60.2402 71.6436-60.2402C59.1773-60.2402 46.6279-55.9063 36.4478-45.9605C29.812-53.5894 22.1338-57.7617 13.0835-57.9082C11.3018-57.9419 10.0283-56.9194 9.86328-55.1343C9.08203-47.2627 12.6919-38.7764 18.2549-33.644C12.6919-28.542 9.08203-20.0102 9.86328-12.1201C10.0283-10.3686 11.3018-9.29735 13.0835-9.33104C22.1338-9.49266 29.812-13.6987 36.4478-21.3125C46.6279-11.3481 59.1773-7.04442 71.6436-7.04442ZM71.6436-12.4897C59.2969-12.4897 47.6924-16.7749 38.1489-27.418C37.0474-28.6357 35.4995-28.6021 34.398-27.2681C28.7022-20.1665 23.1563-16.1255 16.2451-15.0947C15.7095-14.9937 15.2412-15.4619 15.3423-16.0313C15.7974-22.2285 19.3399-28.04 23.9712-31.5605C25.7061-32.999 25.7398-34.2554 23.9561-35.709C19.3399-39.2935 15.7974-45.041 15.3423-51.208C15.2412-51.7925 15.7095-52.2944 16.2451-52.1934C23.1563-51.1626 28.7022-47.103 34.3828-40.02C35.4507-38.6372 37.0322-38.6035 38.1338-39.8701C47.7075-50.4795 59.2969-54.8135 71.6436-54.8135C87.9219-54.8135 110.167-44.4277 110.182-33.644C110.167-22.8604 87.9219-12.4897 71.6436-12.4897ZM95.0332-31.4717C97.0894-31.4717 98.8155-33.1826 98.8155-35.2539C98.8155-37.3252 97.0894-39.0361 95.0332-39.0361C92.9619-39.0361 91.2359-37.3252 91.2359-35.2539C91.2359-33.1826 92.9619-31.4717 95.0332-31.4717ZM59.9912-11.0879L58.3916 1.79835C58.043 4.66994 59.9175 6.55813 63.2573 6.04446C72.8399 4.5425 83.4771-2.3701 89.0235-10.3989L82.0103-9.56688C77.1948-5.1914 71.6529-1.34081 65.2198 0.299326C64.5528 0.467783 64.0659 0.321299 64.167-0.600091L65.1519-10.2207Z"/>
  </g>
  <g id="Thin-S" transform="matrix(1 0 0 1 796.916 696)">
   <path d="M51.6309-54.1231L54.5547-55.1758C53.8985-58.9961 52.5626-62.1406 49.5333-66.3672C49.3399-66.6153 49.3672-66.8848 49.6231-66.9961C62.0137-72.9082 78.836-67.2188 83.502-54.2754L87.0645-53.7188C82.5118-69.8028 61.4024-77.1309 46.584-68.9551C45.293-68.2539 45.2266-66.9219 46.1621-65.6817C49.8008-60.9278 50.8985-58.1289 51.6309-54.1231ZM68.5606-9.38669C85.5176-9.38669 109.211-19.8945 109.246-33.9043C109.211-47.9004 85.5176-58.4785 68.5606-58.4785C56.0743-58.4785 44.1055-54.2246 34.3457-44.2989C27.9102-52.0078 20.7324-56.0801 11.9824-56.2266C10.6211-56.2403 9.98828-55.7383 9.86328-54.4336C9.08203-46.7422 12.752-38.6563 18.375-33.9043C12.752-29.2226 9.08203-21.0312 9.86328-13.3613C9.98828-12.0703 10.6211-11.5195 11.9824-11.5332C20.7324-11.7148 27.9102-15.8008 34.3457-23.4746C44.1055-13.5703 56.0743-9.38669 68.5606-9.38669ZM68.5606-12.6699C56.0938-12.6699 44.7696-16.875 35.3262-27.2578C34.7051-27.9551 33.7578-27.9414 33.1367-27.168C27.1406-19.5859 21.2344-15.625 13.6426-14.9746C13.3672-14.9336 13.1192-15.1816 13.1602-15.4707C13.0547-22.3086 16.6973-28.9609 22.0293-32.6816C23.0235-33.4394 23.0371-34.3555 21.9942-35.1484C16.6973-38.9531 13.0547-45.5215 13.1602-52.289C13.1192-52.6133 13.3672-52.875 13.6426-52.834C21.2344-52.1836 27.1406-48.2441 33.1016-40.6406C33.709-39.8183 34.67-39.8047 35.2911-40.5508C44.8047-50.9199 56.0938-55.1738 68.5606-55.1738C84.7989-55.1738 105.982-45.3887 106.018-33.9043C105.982-22.4199 84.7989-12.6699 68.5606-12.6699ZM90.7891-32.1523C92.4649-32.1523 93.8907-33.543 93.8907-35.2539C93.8907-36.9648 92.4649-38.3555 90.7891-38.3555C89.0782-38.3555 87.6524-36.9648 87.6524-35.2539C87.6524-33.543 89.0782-32.1523 90.7891-32.1523ZM58.0293-12.4492L56.5098-0.34372C56.2813 1.54692 57.5352 2.57427 59.6739 2.22076C68.7559 0.79888 78.0919-5.0527 83.418-12.1406L78.9473-11.6289C74.0918-6.63279 67.5489-2.66209 60.6153-1.24217C60.2286-1.17381 60.002-1.32029 60.043-1.78123L61.168-11.6621Z"/>
  </g>
  <g id="Ultralight-S" transform="matrix(1 0 0 1 501.805 696)">
   <path d="M50.5542-53.6309L52.4937-54.6631C51.817-58.4014 50.3477-61.4947 47.2467-65.7007C47.1251-65.836 47.1319-66.0132 47.3057-66.1143C59.7784-72.6826 77.0211-67.0855 82.1792-53.9985L84.901-52.9805C80.1739-68.5005 59.772-75.4595 45.3741-67.5196C44.3189-66.9415 44.3755-65.876 45.0855-64.9434C48.6319-60.3125 49.8218-57.4522 50.5542-53.6309ZM66.9815-10.5864C83.6719-10.5864 106.002-20.6841 106.047-34.0376C106.002-47.3877 83.6719-57.5762 66.9815-57.5762C54.4849-57.5762 42.8135-53.3633 33.2691-43.4478C26.9361-51.1978 20.0147-55.2188 11.4185-55.3653C10.2725-55.3687 9.96777-55.1333 9.86328-54.0747C9.08203-46.4756 12.7827-38.5947 18.4365-34.0376C12.7827-29.5713 9.08203-21.5542 9.86328-13.997C9.96777-12.9419 10.2725-12.6577 11.4185-12.6611C20.0147-12.853 26.9361-16.8774 33.2691-24.582C42.8135-14.7085 54.4849-10.5864 66.9815-10.5864ZM66.9815-12.7622C54.4532-12.7622 43.2725-16.9263 33.8804-27.1758C33.5054-27.6065 32.8658-27.603 32.4907-27.1167C26.3408-19.2886 20.25-15.3687 12.3096-14.9131C12.1675-14.9028 12.0323-15.0381 12.0425-15.1836C11.65-22.3496 15.3438-29.4326 21.0347-33.2558C21.6495-33.665 21.6529-34.4067 20.9893-34.8613C15.3438-38.7788 11.65-45.7676 12.0425-52.8428C12.0323-53.0337 12.1675-53.1724 12.3096-53.1621C20.25-52.7065 26.3408-48.8286 32.4453-40.9585C32.8169-40.4233 33.46-40.4199 33.835-40.8994C43.3179-51.1455 54.4532-55.3584 66.9815-55.3584C83.1993-55.3584 103.839-45.8808 103.885-34.0376C103.839-22.1943 83.1993-12.7622 66.9815-12.7622ZM88.6153-32.501C90.0963-32.501 91.3683-33.7275 91.3683-35.2539C91.3683-36.7803 90.0963-38.0068 88.6153-38.0068C87.0889-38.0068 85.817-36.7803 85.817-35.2539C85.817-33.7275 87.0889-32.501 88.6153-32.501ZM57.0244-13.1465L55.5459-1.44088C55.3789-0.0526786 56.315 0.533763 57.8384 0.262275C66.6641-1.11859 75.3336-6.42671 80.547-13.0327L77.3785-12.685C72.5025-7.37107 65.4469-3.33884 58.2569-2.03171C58.0137-2.01462 57.9205-2.1611 57.9307-2.38621L59.1275-12.4004Z"/>
  </g>
 </g>
</svg>
